<?xml version="1.0" encoding="UTF-8"?>
<svg version="1.1" xmlns="http://www.w3.org/2000/svg" width="418" height="160">
<path d="M0 0 C137.94 0 275.88 0 418 0 C418 52.8 418 105.6 418 160 C280.06 160 142.12 160 0 160 C0 107.2 0 54.4 0 0 Z " fill="#046381" transform="translate(0,0)"/>
<path d="M0 0 C29.37 0 58.74 0 89 0 C89.495 0.99 89.495 0.99 90 2 C87.86519209 3.18600439 85.73015123 4.37155391 83.59375 5.5546875 C81.88045762 6.50938355 80.17198472 7.4727865 78.46875 8.4453125 C77.6746875 8.89648438 76.880625 9.34765625 76.0625 9.8125 C74.96615234 10.44091797 74.96615234 10.44091797 73.84765625 11.08203125 C72 12 72 12 70 12 C69.67 12.99 69.34 13.98 69 15 C66.69921875 16.359375 66.69921875 16.359375 63.6875 17.75 C58.56109472 20.21427201 53.62475106 22.7642369 48.85083008 25.86352539 C45.87187572 27.66694677 42.90862634 28.73850454 39.60644531 29.82861328 C32.94811491 32.36174109 27.2881339 35.14223461 23 41 C18.74673995 52.27061113 20.54182622 66.26723161 21.02581787 78.05047607 C21.19165022 82.6685752 21.23079888 87.28765806 21.28125 91.90820312 C21.39827668 100.94411019 21.65411273 109.97015585 22 119 C22.93012657 119.217061 22.93012657 119.217061 23.87904358 119.43850708 C26.19240612 120.05093677 27.88311998 120.95265995 29.93359375 122.1796875 C31.0309082 122.83130859 31.0309082 122.83130859 32.15039062 123.49609375 C32.90513672 123.95113281 33.65988281 124.40617187 34.4375 124.875 C35.18837891 125.32230469 35.93925781 125.76960938 36.71289062 126.23046875 C39.78356289 128.06152926 42.84506845 129.90473803 45.890625 131.77734375 C47.94750617 132.96957302 49.6730041 133.56907483 52 134 C52 134.66 52 135.32 52 136 C53.423125 136.433125 53.423125 136.433125 54.875 136.875 C58 138 58 138 60 140 C61.98356483 140.71408334 63.98315437 141.38617742 66 142 C66 142.66 66 143.32 66 144 C66.804375 144.20625 67.60875 144.4125 68.4375 144.625 C73.05962539 146.40897822 77.17582758 148.8360005 81 152 C82 155 82 155 82 158 C81.67 158.66 81.34 159.32 81 160 C54.27 160 27.54 160 0 160 C0 107.2 0 54.4 0 0 Z " fill="#036381" transform="translate(0,0)"/>
<path d="M0 0 C6.84936836 3.97611638 11.56600286 9.23878572 14.1328125 16.77734375 C16.28463915 26.39414928 15.41400159 34.46392858 10.53125 43.04296875 C8.01754778 46.69117375 5.51799996 49.25926329 1.765625 51.60546875 C1.13269531 52.01539063 0.49976563 52.4253125 -0.15234375 52.84765625 C-7.05717519 56.60450638 -14.5777857 56.55133069 -22.234375 55.60546875 C-28.37861544 53.66098799 -33.04936492 50.52901002 -37.234375 45.60546875 C-37.935625 44.84234375 -38.636875 44.07921875 -39.359375 43.29296875 C-44.54660567 35.85793812 -45.19369897 28.47921547 -44.234375 19.60546875 C-42.28392331 12.01263896 -37.38047741 5.38563392 -30.88671875 1.03125 C-20.55534679 -4.8315936 -10.85266981 -5.07120827 0 0 Z " fill="#09627D" transform="translate(105.234375,50.39453125)"/>
<path d="M0 0 C2.94128986 1.08994607 5.4597688 2.62781315 8.140625 4.25390625 C11.76171915 6.44670536 15.224417 8.35827938 19.203125 9.81640625 C19.203125 10.47640625 19.203125 11.13640625 19.203125 11.81640625 C20.04101562 12.07164063 20.87890625 12.326875 21.7421875 12.58984375 C25.53520338 13.93409543 29.00537291 15.60654818 32.578125 17.44140625 C33.21878906 17.76625 33.85945313 18.09109375 34.51953125 18.42578125 C36.08260001 19.21898032 37.64313122 20.01717656 39.203125 20.81640625 C39.203125 21.47640625 39.203125 22.13640625 39.203125 22.81640625 C39.91879639 23.0882373 40.63446777 23.36006836 41.37182617 23.64013672 C44.20097494 24.815513 46.82005161 26.16138345 49.50390625 27.63671875 C50.48037109 28.17167969 51.45683594 28.70664062 52.46289062 29.2578125 C53.47029297 29.81339844 54.47769531 30.36898437 55.515625 30.94140625 C56.54236328 31.50472656 57.56910156 32.06804688 58.62695312 32.6484375 C61.15374551 34.03523518 63.67906994 35.4246346 66.203125 36.81640625 C66.203125 37.80640625 66.203125 38.79640625 66.203125 39.81640625 C61.37039409 40.13330664 58.41755262 39.29592723 54.140625 37.06640625 C52.63822266 36.30070312 52.63822266 36.30070312 51.10546875 35.51953125 C48.203125 33.81640625 48.203125 33.81640625 45.76953125 31.80078125 C43.35047579 29.93033958 41.12802209 28.87547021 38.30908203 27.74560547 C33.57338717 25.65610226 29.13209273 22.94096082 24.640625 20.37890625 C23.62548828 19.80591797 22.61035156 19.23292969 21.56445312 18.64257812 C16.65319863 15.85493596 11.86184019 13.00669441 7.203125 9.81640625 C3.10291124 7.66379402 0.66247672 7.53005479 -3.796875 8.81640625 C-5.18010857 9.52164881 -6.54460648 10.2641742 -7.89453125 11.03125 C-9.08925049 11.70692017 -9.08925049 11.70692017 -10.30810547 12.39624023 C-11.12939941 12.86489502 -11.95069336 13.3335498 -12.796875 13.81640625 C-13.95727295 14.47201538 -13.95727295 14.47201538 -15.14111328 15.14086914 C-28.79373753 22.86169283 -42.32446671 30.78578853 -55.796875 38.81640625 C-56.6540361 39.19930313 -57.5111972 39.58220001 -58.39433289 39.97669983 C-61.0992992 41.63689418 -61.0992992 41.63689418 -61.45198059 44.83895874 C-61.47152046 46.69830551 -61.47152046 46.69830551 -61.49145508 48.59521484 C-61.51182579 49.62258003 -61.51182579 49.62258003 -61.53260803 50.67070007 C-61.56992219 52.9359511 -61.5699388 55.19931255 -61.56640625 57.46484375 C-61.57739379 59.04042298 -61.58942732 60.61599522 -61.60246277 62.19155884 C-61.62338123 65.49542707 -61.62464356 68.79862988 -61.61352539 72.10253906 C-61.60184186 76.33268997 -61.64930866 80.55983336 -61.71298695 84.78943443 C-61.75361851 88.04442985 -61.75734887 91.29870236 -61.75058556 94.55391312 C-61.75278992 96.11285962 -61.76766731 97.67184239 -61.79554176 99.23054123 C-62.27960295 107.55756926 -62.27960295 107.55756926 -59.09735107 114.82159424 C-57.03259284 116.1317797 -55.09670566 117.00258208 -52.796875 117.81640625 C-52.03455566 118.28046875 -51.27223633 118.74453125 -50.48681641 119.22265625 C-39.41498515 125.81123528 -39.41498515 125.81123528 -27.984375 131.74609375 C-22.35300633 134.50144199 -16.96916121 137.69669263 -11.609375 140.94140625 C-5.30124951 145.24059473 -5.30124951 145.24059473 1.89453125 146.66796875 C6.11787734 145.58096822 9.25384109 143.60288735 12.890625 141.25390625 C19.81958934 136.81640625 19.81958934 136.81640625 23.203125 136.81640625 C23.203125 136.15640625 23.203125 135.49640625 23.203125 134.81640625 C23.82131104 134.469729 24.43949707 134.12305176 25.07641602 133.76586914 C27.97409144 132.13913702 30.86980085 130.50893149 33.765625 128.87890625 C34.81234375 128.29222168 35.8590625 127.70553711 36.9375 127.10107422 C41.62637308 124.46033897 46.28793679 121.81079818 50.82421875 118.9140625 C51.4905835 118.49181396 52.15694824 118.06956543 52.84350586 117.63452148 C54.04644334 116.86272741 55.23958436 116.07535073 56.42016602 115.26977539 C59.66715416 113.19527013 61.19349274 112.81573199 65.109375 113.08984375 C66.1303125 113.32960938 67.15125 113.569375 68.203125 113.81640625 C68.203125 114.47640625 68.203125 115.13640625 68.203125 115.81640625 C66.74774932 116.65489429 65.28872127 117.48704559 63.828125 118.31640625 C62.60996094 119.0125 62.60996094 119.0125 61.3671875 119.72265625 C59.203125 120.81640625 59.203125 120.81640625 57.203125 120.81640625 C57.203125 121.47640625 57.203125 122.13640625 57.203125 122.81640625 C56.18992187 123.22761719 55.17671875 123.63882813 54.1328125 124.0625 C50.33753322 125.69163268 46.83668541 127.70949104 43.328125 129.87890625 C42.00827198 130.68304631 40.68794073 131.48640184 39.3671875 132.2890625 C38.6855957 132.70430176 38.00400391 133.11954102 37.30175781 133.54736328 C33.08355732 136.09810853 28.82442207 138.57997233 24.56567383 141.06225586 C21.01074472 143.14034049 17.48639958 145.25155255 14.00390625 147.44921875 C12.99650391 148.07763672 12.99650391 148.07763672 11.96875 148.71875 C10.70521578 149.50972242 9.44815683 150.31117583 8.19921875 151.125 C4.37692167 153.50312601 1.69007036 154.45916426 -2.796875 153.81640625 C-4.96484375 152.71484375 -4.96484375 152.71484375 -6.984375 151.19140625 C-12.01474065 147.58602473 -17.32816684 144.69897766 -22.796875 141.81640625 C-22.796875 141.15640625 -22.796875 140.49640625 -22.796875 139.81640625 C-23.8075 139.56890625 -24.818125 139.32140625 -25.859375 139.06640625 C-29.93065854 137.91979987 -33.19931906 136.01899152 -36.796875 133.81640625 C-36.796875 133.15640625 -36.796875 132.49640625 -36.796875 131.81640625 C-37.63605469 131.7390625 -38.47523437 131.66171875 -39.33984375 131.58203125 C-43.56184242 130.64698974 -46.49835159 128.86941189 -50.109375 126.56640625 C-51.35444738 125.78872697 -52.60055434 125.01270175 -53.84765625 124.23828125 C-54.44016678 123.86926697 -55.03267731 123.50025269 -55.6431427 123.12005615 C-57.91484476 121.74499939 -60.21919791 120.44864628 -62.54370117 119.16503906 C-63.34337814 118.7228302 -64.14305511 118.28062134 -64.96696472 117.82501221 C-65.57083511 117.49217224 -66.17470551 117.15933228 -66.796875 116.81640625 C-67.122099 106.802889 -67.37041383 96.79063808 -67.52224541 86.7729044 C-67.59514539 82.12021718 -67.69388019 77.4711561 -67.85302734 72.82055664 C-68.00583264 68.32684612 -68.08897947 63.83660668 -68.1251564 59.34049797 C-68.15091071 57.63086194 -68.20121714 55.92140425 -68.27709579 54.21325874 C-68.8321441 41.1932695 -68.8321441 41.1932695 -65.43045807 37.22065353 C-61.60400323 33.98164358 -57.32739834 31.9003704 -52.796875 29.81640625 C-51.24763361 28.95488886 -49.70348768 28.08388803 -48.171875 27.19140625 C-47.47449219 26.81628906 -46.77710937 26.44117187 -46.05859375 26.0546875 C-43.32790447 24.55964691 -40.66116142 22.9683564 -37.984375 21.37890625 C-32.87207359 18.3705135 -27.65437334 15.71052233 -22.29296875 13.17578125 C-19.95184378 11.9008024 -18.62128486 10.70561755 -16.796875 8.81640625 C-15.38572188 7.95896274 -13.94530529 7.14848093 -12.484375 6.37890625 C-9.66910811 4.8752978 -7.05214085 3.33447852 -4.484375 1.44140625 C-1.796875 -0.18359375 -1.796875 -0.18359375 0 0 Z " fill="#28BAE6" transform="translate(88.796875,2.18359375)"/>
<path d="M0 0 C4.60913104 2.49346433 9.16469937 5.07360452 13.7109375 7.6796875 C15.0721875 8.45505859 15.0721875 8.45505859 16.4609375 9.24609375 C20.59034796 11.60830694 24.67949865 13.99895901 28.6875 16.5625 C31.49165856 18.34286744 34.23426601 19.60252959 37.3359375 20.8046875 C39.10672002 21.91813408 40.85606973 23.0661809 42.5859375 24.2421875 C47.41029981 27.38424165 51.80438565 29.26310748 57.3359375 30.8046875 C57.3359375 31.4646875 57.3359375 32.1246875 57.3359375 32.8046875 C56.0159375 32.8046875 54.6959375 32.8046875 53.3359375 32.8046875 C53.3359375 33.4646875 53.3359375 34.1246875 53.3359375 34.8046875 C49.9309226 34.13316484 47.29197337 32.81094621 44.2734375 31.1171875 C43.30019531 30.57449219 42.32695312 30.03179687 41.32421875 29.47265625 C40.33808594 28.92222656 39.35195312 28.37179688 38.3359375 27.8046875 C36.54462096 26.84569986 34.75295932 25.88735655 32.9609375 24.9296875 C29.01890213 22.78402268 25.20058557 20.50142084 21.3984375 18.1171875 C15.60092849 14.53821985 9.75131383 11.06059002 3.8359375 7.6796875 C2.97492432 7.16962158 2.11391113 6.65955566 1.22680664 6.1340332 C-3.40884279 3.31300931 -3.40884279 3.31300931 -8.58203125 3.4609375 C-9.26910156 3.904375 -9.95617187 4.3478125 -10.6640625 4.8046875 C-12.32326146 5.17339838 -13.9888268 5.51750424 -15.6640625 5.8046875 C-15.6640625 6.4646875 -15.6640625 7.1246875 -15.6640625 7.8046875 C-16.26089844 8.12179688 -16.85773438 8.43890625 -17.47265625 8.765625 C-28.07317764 14.46753992 -38.4455032 20.57277426 -48.6875 26.89453125 C-49.50855225 27.40089111 -50.32960449 27.90725098 -51.17553711 28.42895508 C-52.77016049 29.41538457 -54.36220919 30.40599063 -55.95141602 31.40112305 C-56.66998779 31.84625244 -57.38855957 32.29138184 -58.12890625 32.75 C-59.08204712 33.34578857 -59.08204712 33.34578857 -60.05444336 33.95361328 C-61.6640625 34.8046875 -61.6640625 34.8046875 -63.6640625 34.8046875 C-63.6640625 57.2446875 -63.6640625 79.6846875 -63.6640625 102.8046875 C-62.0140625 103.4646875 -60.3640625 104.1246875 -58.6640625 104.8046875 C-56.91855259 105.70697617 -55.18722986 106.6370811 -53.46875 107.58984375 C-52.50582031 108.12029297 -51.54289062 108.65074219 -50.55078125 109.19726562 C-49.05998047 110.02387695 -49.05998047 110.02387695 -47.5390625 110.8671875 C-45.55854352 111.96450207 -43.57682538 113.0596559 -41.59375 114.15234375 C-40.71960449 114.63711182 -39.84545898 115.12187988 -38.94482422 115.62133789 C-36.6025055 116.91199123 -36.6025055 116.91199123 -33.6640625 117.8046875 C-33.6640625 118.4646875 -33.6640625 119.1246875 -33.6640625 119.8046875 C-32.8803125 120.0315625 -32.0965625 120.2584375 -31.2890625 120.4921875 C-26.54104625 122.21129683 -22.14303698 124.48553471 -17.6640625 126.8046875 C-17.6640625 127.4646875 -17.6640625 128.1246875 -17.6640625 128.8046875 C-16.58125 129.206875 -16.58125 129.206875 -15.4765625 129.6171875 C-12.6640625 130.8046875 -12.6640625 130.8046875 -10.1640625 132.4921875 C-6.97767563 134.16504061 -6.07932158 133.82926522 -2.6640625 132.8046875 C-0.30317251 131.53037579 1.94375415 130.2267623 4.2109375 128.8046875 C5.54544712 127.98547212 6.88008632 127.1664678 8.21484375 126.34765625 C8.89562988 125.92661621 9.57641602 125.50557617 10.27783203 125.07177734 C13.5501985 123.05711756 16.8498459 121.08850272 20.1484375 119.1171875 C23.47463556 117.12462672 26.79962113 115.13055061 30.11328125 113.1171875 C35.35250992 109.93888765 40.66738923 106.96477267 46.0859375 104.1015625 C48.43829687 102.87533862 48.43829687 102.87533862 50.3359375 100.8046875 C51.6559375 100.8046875 52.9759375 100.8046875 54.3359375 100.8046875 C54.3359375 101.4646875 54.3359375 102.1246875 54.3359375 102.8046875 C55.8209375 103.2996875 55.8209375 103.2996875 57.3359375 103.8046875 C56.77503418 104.06991211 56.21413086 104.33513672 55.63623047 104.60839844 C47.33564607 108.63625577 39.50508678 113.39156673 31.62402344 118.16796875 C29.84566854 119.24391623 28.06367627 120.31362761 26.28125 121.3828125 C24.71141357 122.33269043 24.71141357 122.33269043 23.10986328 123.30175781 C20.76710617 124.57107772 18.93574537 125.34786969 16.3359375 125.8046875 C16.3359375 126.4646875 16.3359375 127.1246875 16.3359375 127.8046875 C15.17578125 128.36736328 15.17578125 128.36736328 13.9921875 128.94140625 C8.46654202 131.6563583 3.19272296 134.32941616 -1.75 138.01953125 C-4.69242212 139.22652481 -6.62130507 138.60737811 -9.6640625 137.8046875 C-12.91796875 136.28125 -12.91796875 136.28125 -16.2265625 134.4296875 C-17.32097656 133.82382813 -18.41539063 133.21796875 -19.54296875 132.59375 C-22.27158508 131.02966204 -24.97262592 129.43156862 -27.6640625 127.8046875 C-34.24192481 123.91262857 -40.8618771 120.12486846 -47.58203125 116.484375 C-51.47557102 114.3624205 -55.35432646 112.21523293 -59.2265625 110.0546875 C-59.93006836 109.66555176 -60.63357422 109.27641602 -61.35839844 108.87548828 C-64.07111208 107.3572972 -66.45445677 106.01429323 -68.6640625 103.8046875 C-68.99205017 100.9225769 -68.99205017 100.9225769 -69.09741211 97.18701172 C-69.11858597 96.5070665 -69.13975983 95.82712128 -69.16157532 95.12657166 C-69.36691571 88.00605014 -69.45239109 80.88167255 -69.52905273 73.75878906 C-69.56909135 70.3816574 -69.6455479 67.00840671 -69.75463867 63.6328125 C-69.88631692 59.5515939 -69.95340382 55.47398797 -69.9753437 51.39075089 C-69.99424732 49.839498 -70.03537614 48.28834259 -70.09968376 46.73830795 C-70.29088405 41.87161255 -70.22884554 37.48220586 -68.6640625 32.8046875 C-64.72072285 29.02365844 -60.64962502 27.05387129 -55.6640625 24.8046875 C-53.61841025 23.62795454 -51.58354699 22.43199525 -49.56640625 21.20703125 C-47.57907084 20.05045656 -45.59079413 18.89549776 -43.6015625 17.7421875 C-42.61607422 17.16919922 -41.63058594 16.59621094 -40.61523438 16.00585938 C-38.63385803 14.85383611 -36.65201006 13.70262359 -34.66967773 12.55224609 C-31.54935902 10.73799531 -28.43495697 8.91381506 -25.3203125 7.08984375 C-21.32149703 4.75880231 -17.33078265 2.44502977 -13.2265625 0.3046875 C-12.27910156 -0.200625 -11.33164063 -0.7059375 -10.35546875 -1.2265625 C-6.23170158 -2.71087927 -3.89955936 -1.74965567 0 0 Z " fill="#047AA2" transform="translate(95.6640625,11.1953125)"/>
<path d="M0 0 C6.84936836 3.97611638 11.56600286 9.23878572 14.1328125 16.77734375 C16.28463915 26.39414928 15.41400159 34.46392858 10.53125 43.04296875 C8.01754778 46.69117375 5.51799996 49.25926329 1.765625 51.60546875 C1.13269531 52.01539063 0.49976563 52.4253125 -0.15234375 52.84765625 C-7.05717519 56.60450638 -14.5777857 56.55133069 -22.234375 55.60546875 C-28.37861544 53.66098799 -33.04936492 50.52901002 -37.234375 45.60546875 C-37.935625 44.84234375 -38.636875 44.07921875 -39.359375 43.29296875 C-44.54660567 35.85793812 -45.19369897 28.47921547 -44.234375 19.60546875 C-42.28392331 12.01263896 -37.38047741 5.38563392 -30.88671875 1.03125 C-20.55534679 -4.8315936 -10.85266981 -5.07120827 0 0 Z M-34.546875 14.41796875 C-37.62296652 20.24237154 -37.02457587 27.26324781 -36.234375 33.60546875 C-34.18279029 39.35863609 -30.12869746 43.13865701 -25.234375 46.60546875 C-18.95698408 49.52663086 -12.75716748 49.8860699 -6.21484375 47.5078125 C-0.17873123 44.47763553 3.12923454 41.83693711 5.765625 35.60546875 C6.095625 34.94546875 6.425625 34.28546875 6.765625 33.60546875 C6.80584891 31.27248215 6.80882747 28.93840209 6.765625 26.60546875 C6.105625 26.60546875 5.445625 26.60546875 4.765625 26.60546875 C4.270625 23.63546875 4.270625 23.63546875 3.765625 20.60546875 C4.425625 20.60546875 5.085625 20.60546875 5.765625 20.60546875 C6.260625 22.09046875 6.260625 22.09046875 6.765625 23.60546875 C6.27516011 17.4746576 4.87040496 13.33345502 0.15625 9.19140625 C-5.17892259 5.15461637 -10.32808621 3.10248014 -17.15234375 3.28515625 C-24.17822741 4.36606143 -30.15936449 9.08180732 -34.546875 14.41796875 Z " fill="#E2F5F7" transform="translate(105.234375,50.39453125)"/>
<path d="M0 0 C2.56314499 -0.08132187 5.12368418 -0.14064175 7.6875 -0.1875 C8.40873047 -0.21263672 9.12996094 -0.23777344 9.87304688 -0.26367188 C14.47589338 -0.32672457 17.30307233 0.22183542 21 3 C21 2.01 21 1.02 21 0 C26.25105442 -0.02464928 31.50207545 -0.04283568 36.75317383 -0.05493164 C38.54094021 -0.05997218 40.32870245 -0.06680454 42.11645508 -0.07543945 C44.68051168 -0.0875173 47.24451397 -0.09323094 49.80859375 -0.09765625 C50.6127623 -0.10281754 51.41693085 -0.10797882 52.24546814 -0.11329651 C54.16401715 -0.11349215 56.08245368 -0.06201983 58 0 C59 1 59 1 59.11352539 2.85766602 C59.10828857 3.64842529 59.10305176 4.43918457 59.09765625 5.25390625 C59.09443359 6.10791016 59.09121094 6.96191406 59.08789062 7.84179688 C59.07532227 9.18854492 59.07532227 9.18854492 59.0625 10.5625 C59.05798828 11.46419922 59.05347656 12.36589844 59.04882812 13.29492188 C59.03700225 15.53001314 59.0205222 17.76497437 59 20 C57.68 20 56.36 20 55 20 C54.071875 18.7934375 54.071875 18.7934375 53.125 17.5625 C51.18185563 14.70478106 51.18185563 14.70478106 47.75 14.1875 C46.8425 14.125625 45.935 14.06375 45 14 C45 16.64 45 19.28 45 22 C39.50992722 22.94656427 36.28102164 23.08784576 31 21 C30.01 21 29.02 21 28 21 C27.67 21.66 27.34 22.32 27 23 C26.67 22.34 26.34 21.68 26 21 C25.67 21.33 25.34 21.66 25 22 C21.01951196 22.09314316 17.03962182 21.85349765 13.0625 21.6875 C11.93908203 21.65205078 10.81566406 21.61660156 9.65820312 21.58007812 C8.05041992 21.51530273 8.05041992 21.51530273 6.41015625 21.44921875 C5.42152588 21.41143311 4.43289551 21.37364746 3.41430664 21.3347168 C1 21 1 21 -1 19 C-1.1721221 16.1293534 -1.23223075 13.36747658 -1.1875 10.5 C-1.18685547 9.71496094 -1.18621094 8.92992188 -1.18554688 8.12109375 C-1.14046848 2.28093696 -1.14046848 2.28093696 0 0 Z " fill="#2C7487" transform="translate(145,69)"/>
<path d="M0 0 C2.78086822 1.22754794 5.32959979 2.61812473 7.92578125 4.203125 C11.68666536 6.45692359 15.44434194 8.67925484 19.30078125 10.765625 C20.19023438 11.24773438 21.0796875 11.72984375 21.99609375 12.2265625 C23.08664063 12.81695312 24.1771875 13.40734375 25.30078125 14.015625 C36.481204 20.07516841 47.5708004 26.1821153 58.30078125 33.015625 C55.30078125 34.015625 55.30078125 34.015625 52.98828125 33.01171875 C52.10140625 32.49738281 51.21453125 31.98304687 50.30078125 31.453125 C48.82738281 30.61201172 48.82738281 30.61201172 47.32421875 29.75390625 C46.32648438 29.18027344 45.32875 28.60664062 44.30078125 28.015625 C42.51103879 27.0537029 40.71940281 26.09529454 38.92578125 25.140625 C34.98374588 22.99496018 31.16542932 20.71235834 27.36328125 18.328125 C21.56577224 14.74915735 15.71615758 11.27152752 9.80078125 7.890625 C8.93976807 7.38055908 8.07875488 6.87049316 7.19165039 6.3449707 C2.55600096 3.52394681 2.55600096 3.52394681 -2.6171875 3.671875 C-3.30425781 4.1153125 -3.99132812 4.55875 -4.69921875 5.015625 C-6.35841771 5.38433588 -8.02398305 5.72844174 -9.69921875 6.015625 C-9.69921875 6.675625 -9.69921875 7.335625 -9.69921875 8.015625 C-10.29605469 8.33273438 -10.89289063 8.64984375 -11.5078125 8.9765625 C-22.10833389 14.67847742 -32.48065945 20.78371176 -42.72265625 27.10546875 C-43.5437085 27.61182861 -44.36476074 28.11818848 -45.21069336 28.63989258 C-46.80531674 29.62632207 -48.39736544 30.61692813 -49.98657227 31.61206055 C-50.70514404 32.05718994 -51.42371582 32.50231934 -52.1640625 32.9609375 C-53.11720337 33.55672607 -53.11720337 33.55672607 -54.08959961 34.16455078 C-55.69921875 35.015625 -55.69921875 35.015625 -57.69921875 35.015625 C-57.69921875 57.455625 -57.69921875 79.895625 -57.69921875 103.015625 C-56.04921875 103.675625 -54.39921875 104.335625 -52.69921875 105.015625 C-50.95370884 105.91791367 -49.22238611 106.8480186 -47.50390625 107.80078125 C-46.54097656 108.33123047 -45.57804687 108.86167969 -44.5859375 109.40820312 C-43.09513672 110.23481445 -43.09513672 110.23481445 -41.57421875 111.078125 C-39.59369977 112.17543957 -37.61198163 113.2705934 -35.62890625 114.36328125 C-34.75476074 114.84804932 -33.88061523 115.33281738 -32.97998047 115.83227539 C-30.63766175 117.12292873 -30.63766175 117.12292873 -27.69921875 118.015625 C-27.69921875 118.675625 -27.69921875 119.335625 -27.69921875 120.015625 C-26.91546875 120.2425 -26.13171875 120.469375 -25.32421875 120.703125 C-20.5762025 122.42223433 -16.17819323 124.69647221 -11.69921875 127.015625 C-11.69921875 127.675625 -11.69921875 128.335625 -11.69921875 129.015625 C-10.61640625 129.4178125 -10.61640625 129.4178125 -9.51171875 129.828125 C-6.69921875 131.015625 -6.69921875 131.015625 -4.19921875 132.703125 C-1.01283188 134.37597811 -0.11447783 134.04020272 3.30078125 133.015625 C5.66167124 131.74131329 7.9085979 130.4376998 10.17578125 129.015625 C11.51029087 128.19640962 12.84493007 127.3774053 14.1796875 126.55859375 C14.86047363 126.13755371 15.54125977 125.71651367 16.24267578 125.28271484 C19.51504225 123.26805506 22.81468965 121.29944022 26.11328125 119.328125 C29.43947931 117.33556422 32.76446488 115.34148811 36.078125 113.328125 C40.38396134 110.71605367 44.72262008 108.1703141 49.11328125 105.703125 C50.42232422 104.96642578 50.42232422 104.96642578 51.7578125 104.21484375 C54.29646566 103.01766016 56.53616775 102.43751395 59.30078125 102.015625 C56.82559943 104.78322898 54.10431184 106.41799122 50.8828125 108.23828125 C49.8007251 108.85453369 48.7186377 109.47078613 47.60375977 110.10571289 C47.03360138 110.42782745 46.46344299 110.74994202 45.87600708 111.08181763 C42.91226662 112.75694851 39.95745677 114.44760688 37.00390625 116.140625 C36.42105362 116.47461807 35.83820099 116.80861115 35.23768616 117.15272522 C30.54241127 119.85386406 25.9328637 122.67062514 21.36328125 125.578125 C3.84249485 136.68666483 3.84249485 136.68666483 -1.69921875 137.015625 C-4.44140625 135.8203125 -4.44140625 135.8203125 -7.57421875 133.890625 C-8.81937306 133.14166511 -10.0655429 132.39439203 -11.3125 131.6484375 C-12.00424316 131.22981445 -12.69598633 130.81119141 -13.40869141 130.37988281 C-17.81135939 127.75761584 -22.29366168 125.27423321 -26.76171875 122.765625 C-37.76956535 116.56589758 -48.73325882 110.28903851 -59.69921875 104.015625 C-60.00120188 95.02766322 -60.23177751 86.04146004 -60.37277699 77.0495224 C-60.4404751 72.87330811 -60.53216206 68.70057631 -60.67993164 64.52636719 C-60.82181106 60.49302922 -60.89902611 56.46302481 -60.93262291 52.42738342 C-60.9565403 50.89278131 -61.0032598 49.3583508 -61.07370949 47.82518005 C-61.2864657 43.00055508 -61.24570844 38.65660607 -59.69921875 34.015625 C-55.75433892 30.2444884 -51.68027074 28.26177995 -46.69921875 26.015625 C-44.74768382 24.89692472 -42.80643143 23.7597985 -40.8828125 22.59375 C-37.93857321 20.88488412 -34.99118865 19.18152792 -32.04370117 17.47827148 C-26.94479687 14.5218636 -21.87944451 11.53058096 -16.87890625 8.41015625 C-15.97213135 7.84844727 -15.06535645 7.28673828 -14.13110352 6.70800781 C-12.42338163 5.64539701 -10.72290032 4.57103298 -9.03100586 3.48339844 C-3.44092091 0.0199185 -3.44092091 0.0199185 0 0 Z " fill="#1F98BC" transform="translate(89.69921875,10.984375)"/>
<path d="M0 0 C7.23680243 4.25414658 12.03520569 9.19882336 14.91796875 17.16015625 C16.05703416 22.06849267 15.87191865 26.93523181 15.5625 31.9375 C14.5725 32.4325 14.5725 32.4325 13.5625 32.9375 C13.5625 31.2875 13.5625 29.6375 13.5625 27.9375 C12.2425 27.9375 10.9225 27.9375 9.5625 27.9375 C9.2325 28.5975 8.9025 29.2575 8.5625 29.9375 C8.46453125 29.3084375 8.3665625 28.679375 8.265625 28.03125 C6.96532463 20.58815131 5.45976092 13.81169536 -0.8125 9.0625 C-6.3023304 5.60075981 -11.91627485 3.91360671 -18.4375 4.9375 C-22.43564884 6.45379258 -25.88909947 8.57189964 -29.4375 10.9375 C-29.19849616 4.84290206 -29.19849616 4.84290206 -27.140625 2.39453125 C-19.72828833 -3.86192124 -8.64610349 -4.05701779 0 0 Z " fill="#F1FAFB" transform="translate(104.4375,50.0625)"/>
<path d="M0 0 C1.46751239 0.00399142 2.93502584 0.01874717 4.40234375 0.04296875 C5.14806641 0.04361328 5.89378906 0.04425781 6.66210938 0.04492188 C12.19956216 0.09018716 12.19956216 0.09018716 13.33984375 1.23046875 C13.41256116 3.5836043 13.42355243 5.93880543 13.40234375 8.29296875 C13.39332031 9.58332031 13.38429688 10.87367187 13.375 12.203125 C13.36339844 13.20214844 13.35179687 14.20117188 13.33984375 15.23046875 C12.67984375 15.23046875 12.01984375 15.23046875 11.33984375 15.23046875 C11.33984375 16.22046875 11.33984375 17.21046875 11.33984375 18.23046875 C12.32984375 18.56046875 13.31984375 18.89046875 14.33984375 19.23046875 C14.33984375 19.56046875 14.33984375 19.89046875 14.33984375 20.23046875 C11.3814502 20.25736324 8.42329948 20.27725616 5.46484375 20.29296875 C4.62308594 20.30134766 3.78132813 20.30972656 2.9140625 20.31835938 C2.10839844 20.32158203 1.30273438 20.32480469 0.47265625 20.328125 C-0.64278564 20.33598022 -0.64278564 20.33598022 -1.78076172 20.34399414 C-3.66015625 20.23046875 -3.66015625 20.23046875 -5.66015625 19.23046875 C-5.71396203 16.4385467 -5.75373294 13.64765465 -5.78515625 10.85546875 C-5.80191406 10.06140625 -5.81867188 9.26734375 -5.8359375 8.44921875 C-5.85351098 6.3755486 -5.76350793 4.30163634 -5.66015625 2.23046875 C-3.66015625 0.23046875 -3.66015625 0.23046875 0 0 Z " fill="#C2E1E7" transform="translate(272.66015625,68.76953125)"/>
<path d="M0 0 C2.6875 -0.3125 2.6875 -0.3125 6 0 C7.68873879 1.64429829 9.35305515 3.31384218 11 5 C13.04753032 5.94257682 15.07983048 6.65394334 17.23046875 7.32421875 C19 8 19 8 21 10 C21.28875 11.11375 21.5775 12.2275 21.875 13.375 C22.6835024 17.03094735 22.6835024 17.03094735 25.125 19 C27 21 27 21 27.25 24.75 C27.1675 25.8225 27.085 26.895 27 28 C24.875 28.375 24.875 28.375 22 28 C20.578125 26.734375 20.578125 26.734375 19.125 25.125 C16.10397245 21.78391527 13.35104714 21.14933321 9 20 C6.6842488 17.76410229 6.02597311 16.08311394 5.0625 13 C4.22389127 9.90508433 4.22389127 9.90508433 1.875 8 C0 6 0 6 -0.25 2.75 C-0.1675 1.8425 -0.085 0.935 0 0 Z " fill="#507F8C" transform="translate(77,63)"/>
<path d="M0 0 C0.99 0 1.98 0 3 0 C3 1.98 3 3.96 3 6 C3.66 6.33 4.32 6.66 5 7 C4.67 7.66 4.34 8.32 4 9 C4.61875 9.309375 5.2375 9.61875 5.875 9.9375 C9.07684376 13.04517188 9.31552808 16.70403806 10 21 C12.31 21.33 14.62 21.66 17 22 C15.67048346 28.52671756 15.67048346 28.52671756 12.875 30.5 C9.04467649 31.16614322 5.72335645 31.21770148 2 30 C-0.375 27.6875 -0.375 27.6875 -2 25 C-2.35578125 24.43667969 -2.7115625 23.87335938 -3.078125 23.29296875 C-4.38818397 20.03447461 -4.34005866 17.12612238 -4.375 13.625 C-4.40335937 12.33851562 -4.43171875 11.05203125 -4.4609375 9.7265625 C-3.93000052 5.43407196 -2.80063186 3.26571874 0 0 Z " fill="#076280" transform="translate(73,63)"/>
<path d="M0 0 C2.78086822 1.22754794 5.32959979 2.61812473 7.92578125 4.203125 C11.68666536 6.45692359 15.44434194 8.67925484 19.30078125 10.765625 C20.19023438 11.24773438 21.0796875 11.72984375 21.99609375 12.2265625 C23.08664063 12.81695312 24.1771875 13.40734375 25.30078125 14.015625 C36.481204 20.07516841 47.5708004 26.1821153 58.30078125 33.015625 C55.30078125 34.015625 55.30078125 34.015625 52.98828125 33.01171875 C52.10140625 32.49738281 51.21453125 31.98304687 50.30078125 31.453125 C48.82738281 30.61201172 48.82738281 30.61201172 47.32421875 29.75390625 C46.32648438 29.18027344 45.32875 28.60664062 44.30078125 28.015625 C42.51103879 27.0537029 40.71940281 26.09529454 38.92578125 25.140625 C34.98374588 22.99496018 31.16542932 20.71235834 27.36328125 18.328125 C21.56577224 14.74915735 15.71615758 11.27152752 9.80078125 7.890625 C8.93976807 7.38055908 8.07875488 6.87049316 7.19165039 6.3449707 C2.55600096 3.52394681 2.55600096 3.52394681 -2.6171875 3.671875 C-3.30425781 4.1153125 -3.99132812 4.55875 -4.69921875 5.015625 C-6.35841771 5.38433588 -8.02398305 5.72844174 -9.69921875 6.015625 C-9.69921875 6.675625 -9.69921875 7.335625 -9.69921875 8.015625 C-10.29605469 8.33273438 -10.89289063 8.64984375 -11.5078125 8.9765625 C-17.97833385 12.45699152 -24.42567994 16.00311669 -30.65434265 19.90432739 C-34.6459651 22.3752181 -38.47851548 24.37977522 -42.89770508 25.97900391 C-48.75863956 28.33769428 -53.84918451 30.86096635 -57.69921875 36.015625 C-60.96316208 45.99776572 -59.97972424 57.07697722 -59.53607178 67.43469238 C-59.39071797 71.33564952 -59.36070065 75.23741972 -59.3203125 79.140625 C-59.22467775 86.77092584 -59.00304268 94.39046963 -58.69921875 102.015625 C-59.02921875 102.015625 -59.35921875 102.015625 -59.69921875 102.015625 C-60.00124751 93.28845311 -60.23179814 84.56309363 -60.37277699 75.83182526 C-60.44046672 71.77662368 -60.53213334 67.72501041 -60.67993164 63.671875 C-60.82184851 59.7552363 -60.8990324 55.84203144 -60.93262291 51.92301941 C-60.95653428 50.43305857 -61.00324283 48.94327385 -61.07370949 47.45478821 C-61.28753874 42.74813155 -61.24025273 38.53522082 -59.69921875 34.015625 C-55.74954497 30.27811346 -51.65365294 28.27240853 -46.69921875 26.015625 C-44.74814007 24.89612918 -42.8069788 23.75889504 -40.8828125 22.59375 C-37.93857321 20.88488412 -34.99118865 19.18152792 -32.04370117 17.47827148 C-26.94479687 14.5218636 -21.87944451 11.53058096 -16.87890625 8.41015625 C-15.97213135 7.84844727 -15.06535645 7.28673828 -14.13110352 6.70800781 C-12.42338163 5.64539701 -10.72290032 4.57103298 -9.03100586 3.48339844 C-3.44092091 0.0199185 -3.44092091 0.0199185 0 0 Z " fill="#2BA3C7" transform="translate(89.69921875,10.984375)"/>
<path d="M0 0 C2.949375 -0.020625 5.89875 -0.04125 8.9375 -0.0625 C9.86812256 -0.071604 10.79874512 -0.08070801 11.75756836 -0.09008789 C12.48596924 -0.09258545 13.21437012 -0.09508301 13.96484375 -0.09765625 C14.7137085 -0.10289307 15.46257324 -0.10812988 16.23413086 -0.11352539 C18 0 18 0 19 1 C19.08651611 2.41570123 19.10704904 3.835595 19.09765625 5.25390625 C19.09443359 6.10791016 19.09121094 6.96191406 19.08789062 7.84179688 C19.07951172 8.73962891 19.07113281 9.63746094 19.0625 10.5625 C19.05798828 11.46419922 19.05347656 12.36589844 19.04882812 13.29492188 C19.03700225 15.53001314 19.0205222 17.76497437 19 20 C17.68 20 16.36 20 15 20 C14.38125 19.195625 13.7625 18.39125 13.125 17.5625 C11.18185563 14.70478106 11.18185563 14.70478106 7.75 14.1875 C6.8425 14.125625 5.935 14.06375 5 14 C5 15.98 5 17.96 5 20 C3.35 20 1.7 20 0 20 C0 13.4 0 6.8 0 0 Z " fill="#CAE6EB" transform="translate(185,69)"/>
<path d="M0 0 C2.76375 -0.04125 5.5275 -0.0825 8.375 -0.125 C9.67896729 -0.15231201 9.67896729 -0.15231201 11.00927734 -0.18017578 C13.00703478 -0.19473738 15.00467217 -0.09956726 17 0 C19 2 19 2 19.1953125 4.6015625 C19.17210937 5.59929687 19.14890625 6.59703125 19.125 7.625 C19.10695313 8.62789062 19.08890625 9.63078125 19.0703125 10.6640625 C19.04710937 11.43492188 19.02390625 12.20578125 19 13 C18.34 13 17.68 13 17 13 C17.99 14.485 17.99 14.485 19 16 C19 17.32 19 18.64 19 20 C16.75 20.3125 16.75 20.3125 14 20 C13.360625 19.195625 12.72125 18.39125 12.0625 17.5625 C10.1817857 14.69801588 10.1817857 14.69801588 6.75 14.1875 C5.8425 14.125625 4.935 14.06375 4 14 C4 15.98 4 17.96 4 20 C2.68 20 1.36 20 0 20 C0 13.4 0 6.8 0 0 Z " fill="#C8E6EC" transform="translate(246,69)"/>
<path d="M0 0 C0.66 0 1.32 0 2 0 C2 0.66 2 1.32 2 2 C1.34 2 0.68 2 0 2 C0.0721875 3.29679687 0.144375 4.59359375 0.21875 5.9296875 C1.40157254 29.93613568 1.09382773 53.9720151 1 78 C2.32 77.01 3.64 76.02 5 75 C5.71071655 75.45113159 5.71071655 75.45113159 6.43579102 75.91137695 C10.07697702 78.20689762 13.73827559 80.4509061 17.46484375 82.60546875 C18.20154297 83.03150391 18.93824219 83.45753906 19.69726562 83.89648438 C21.21635463 84.77191405 22.73725155 85.64421262 24.25976562 86.51367188 C25.3512793 87.14692383 25.3512793 87.14692383 26.46484375 87.79296875 C27.120896 88.1696167 27.77694824 88.54626465 28.45288086 88.93432617 C30 90 30 90 31 92 C30.34 92 29.68 92 29 92 C29 92.66 29 93.32 29 94 C23.60856939 93.50309395 20.13953212 91.58937652 15.6875 88.75 C14.44242762 87.97232072 13.19632066 87.1962955 11.94921875 86.421875 C11.35670822 86.05286072 10.76419769 85.68384644 10.1537323 85.3036499 C7.88203024 83.92859314 5.57767709 82.63224003 3.25317383 81.34863281 C2.45349686 80.90642395 1.65381989 80.46421509 0.82991028 80.00860596 C0.22603989 79.67576599 -0.37783051 79.34292603 -1 79 C-1.02312392 68.84733849 -1.04091534 58.6946832 -1.05181217 48.54200077 C-1.05704089 43.82820267 -1.06413834 39.11442253 -1.07543945 34.40063477 C-1.08626873 29.85544596 -1.09227692 25.31027448 -1.09487724 20.76507378 C-1.09673142 19.02705042 -1.10035189 17.28902806 -1.10573006 15.55101204 C-1.11294103 13.12521405 -1.11399092 10.69948854 -1.11352539 8.27368164 C-1.11712067 7.54791931 -1.12071594 6.82215698 -1.12442017 6.07440186 C-1.11405216 1.11405216 -1.11405216 1.11405216 0 0 Z " fill="#21AFD8" transform="translate(23,40)"/>
<path d="M0 0 C0 6.6 0 13.2 0 20 C-1.32 20 -2.64 20 -4 20 C-4 18.02 -4 16.04 -4 14 C-7.3 14 -10.6 14 -14 14 C-14 15.98 -14 17.96 -14 20 C-15.32 20 -16.64 20 -18 20 C-18.13572155 17.60225255 -18.23436868 15.21224755 -18.3125 12.8125 C-18.35439453 12.13896484 -18.39628906 11.46542969 -18.43945312 10.77148438 C-18.53185126 6.98316093 -18.10536813 5.14940258 -15.90625 2.03125 C-10.83271889 -1.51476637 -6.0309253 -0.30459219 0 0 Z " fill="#D5F5FB" transform="translate(183,69)"/>
<path d="M0 0 C2.46800047 1.15173355 4.04783565 2.04783565 6 4 C6.66666667 6.33333333 7.33333333 8.66666667 8 11 C9.9441206 13.28965507 9.9441206 13.28965507 13.3125 13.8125 C17.48277879 15.15547114 18.99526679 16.91619486 22 20 C24.67790896 20.87238858 24.67790896 20.87238858 27 21 C27 19.02 27 17.04 27 15 C27.680625 15.9590625 27.680625 15.9590625 28.375 16.9375 C29.83921726 19.09702406 29.83921726 19.09702406 32 20 C27.5828454 24.96929892 23.04988577 28.41554127 16.3203125 29.38671875 C9.79691072 29.64873904 5.5148578 28.47231788 0 25 C-0.33 24.34 -0.66 23.68 -1 23 C0.051875 23.020625 1.10375 23.04125 2.1875 23.0625 C5.32704904 23.01103198 7.96883396 22.73482813 11 22 C11 20.02 11 18.04 11 16 C10.05125 15.855625 9.1025 15.71125 8.125 15.5625 C5 14 5 14 4.296875 12.00390625 C4.01339732 10.40540711 3.74802056 8.80360177 3.5 7.19921875 C2.82545155 4.23225954 1.37698889 2.82235815 -1 1 C-0.67 0.67 -0.34 0.34 0 0 Z " fill="#116681" transform="translate(77,70)"/>
<path d="M0 0 C0.74572266 -0.00386719 1.49144531 -0.00773437 2.25976562 -0.01171875 C7.81086499 -0.00163501 7.81086499 -0.00163501 8.9375 1.125 C8.97813832 2.79117115 8.980221 4.45888095 8.9375 6.125 C7.6175 6.125 6.2975 6.125 4.9375 6.125 C4.9375 5.465 4.9375 4.805 4.9375 4.125 C1.6375 4.125 -1.6625 4.125 -5.0625 4.125 C-5.0625 5.445 -5.0625 6.765 -5.0625 8.125 C-3.67224609 8.10759766 -3.67224609 8.10759766 -2.25390625 8.08984375 C-1.05636719 8.08082031 0.14117187 8.07179688 1.375 8.0625 C2.56996094 8.05089844 3.76492188 8.03929688 4.99609375 8.02734375 C7.9375 8.125 7.9375 8.125 8.9375 9.125 C9.03573937 10.78929051 9.06723631 12.45781931 9.0625 14.125 C9.06636719 15.48625 9.06636719 15.48625 9.0703125 16.875 C8.9375 19.125 8.9375 19.125 7.9375 20.125 C5.09414952 20.22486975 2.28052837 20.26377881 -0.5625 20.25 C-1.36042969 20.25386719 -2.15835937 20.25773437 -2.98046875 20.26171875 C-8.93589233 20.25160767 -8.93589233 20.25160767 -10.0625 19.125 C-10.10313832 17.45882885 -10.105221 15.79111905 -10.0625 14.125 C-8.4125 14.125 -6.7625 14.125 -5.0625 14.125 C-5.0625 14.785 -5.0625 15.445 -5.0625 16.125 C-1.7625 16.125 1.5375 16.125 4.9375 16.125 C4.9375 14.805 4.9375 13.485 4.9375 12.125 C3.93847656 12.13660156 2.93945312 12.14820312 1.91015625 12.16015625 C0.61980469 12.16917969 -0.67054688 12.17820312 -2 12.1875 C-3.28777344 12.19910156 -4.57554687 12.21070312 -5.90234375 12.22265625 C-9.0625 12.125 -9.0625 12.125 -10.0625 11.125 C-10.13455511 9.43891034 -10.14636068 7.74999341 -10.125 6.0625 C-10.11597656 5.14339844 -10.10695313 4.22429687 -10.09765625 3.27734375 C-10.08605469 2.56707031 -10.07445312 1.85679688 -10.0625 1.125 C-6.88856311 -0.46196844 -3.48075795 -0.0181447 0 0 Z " fill="#CBEBF1" transform="translate(339.0625,68.875)"/>
<path d="M0 0 C0.66 0 1.32 0 2 0 C2 25.41 2 50.82 2 77 C0.515 77.495 0.515 77.495 -1 78 C-2.19474878 23.76858576 -2.19474878 23.76858576 -2 2 C-1.34 2 -0.68 2 0 2 C0 1.34 0 0.68 0 0 Z " fill="#2CC2F0" transform="translate(25,40)"/>
<path d="M0 0 C1.32 0 2.64 0 4 0 C4.09796875 0.58007812 4.1959375 1.16015625 4.296875 1.7578125 C5.52812317 8.19002274 7.46230521 12.53279673 12.25 17.1875 C18.78113938 21.49211459 25.19365024 23.06505237 33 22 C39.62090757 20.2088366 44.46336754 16.9123035 48 11 C49.55920635 7.39585323 50.8464946 3.75228521 52 0 C52.99 0 53.98 0 55 0 C54.73375642 7.1885766 52.51668621 12.37296176 48 18 C40.51020448 24.50007254 32.98247049 26.50489157 23.18359375 26.3046875 C15.65657815 25.58431055 10.85807463 21.59188582 5.765625 16.21875 C2.34855462 11.92473236 0.19777649 7.42276202 -0.25 1.9375 C-0.1675 1.298125 -0.085 0.65875 0 0 Z " fill="#2D6A7E" transform="translate(63,78)"/>
<path d="M0 0 C5.94 0 11.88 0 18 0 C18 1.32 18 2.64 18 4 C13.71 4 9.42 4 5 4 C5 5.32 5 6.64 5 8 C8.96 8 12.92 8 17 8 C17 9.32 17 10.64 17 12 C13.04 12 9.08 12 5 12 C5 13.32 5 14.64 5 16 C9.29 16 13.58 16 18 16 C18 17.32 18 18.64 18 20 C12.06 20 6.12 20 0 20 C0 13.4 0 6.8 0 0 Z " fill="#C4E5ED" transform="translate(226,69)"/>
<path d="M0 0 C5.94 0 11.88 0 18 0 C18 1.32 18 2.64 18 4 C13.71 4 9.42 4 5 4 C5 5.32 5 6.64 5 8 C8.96 8 12.92 8 17 8 C17 9.32 17 10.64 17 12 C13.04 12 9.08 12 5 12 C5 13.32 5 14.64 5 16 C9.29 16 13.58 16 18 16 C18 17.32 18 18.64 18 20 C12.06 20 6.12 20 0 20 C0 13.4 0 6.8 0 0 Z " fill="#E3F6F8" transform="translate(309,69)"/>
<path d="M0 0 C0.33 0 0.66 0 1 0 C1.33 3.3 1.66 6.6 2 10 C8.93 10.495 8.93 10.495 16 11 C16 12.32 16 13.64 16 15 C12.7 15 9.4 15 6 15 C6 14.34 6 13.68 6 13 C4.35 13 2.7 13 1 13 C1.33 14.65 1.66 16.3 2 18 C7.94 18 13.88 18 20 18 C20 18.66 20 19.32 20 20 C17.39590255 20.16781295 14.7917318 20.33429651 12.1875 20.5 C11.08051758 20.57154297 11.08051758 20.57154297 9.95117188 20.64453125 C5.37384533 20.93449764 0.90902494 21.01447261 -3.66796875 20.78125 C-4.56064453 20.73613281 -5.45332031 20.69101563 -6.37304688 20.64453125 C-7.30181641 20.59683594 -8.23058594 20.54914063 -9.1875 20.5 C-10.12787109 20.45230469 -11.06824219 20.40460938 -12.03710938 20.35546875 C-14.35810798 20.23765156 -16.67906877 20.11913586 -19 20 C-19 19.67 -19 19.34 -19 19 C-13.06 19 -7.12 19 -1 19 C-1 17.68 -1 16.36 -1 15 C-5.29 15 -9.58 15 -14 15 C-14 13.68 -14 12.36 -14 11 C-10.04 11 -6.08 11 -2 11 C-2 9.68 -2 8.36 -2 7 C-5.96 7 -9.92 7 -14 7 C-14 5.68 -14 4.36 -14 3 C-9.38 3 -4.76 3 0 3 C0 2.01 0 1.02 0 0 Z " fill="#3C7989" transform="translate(328,70)"/>
<path d="M0 0 C5.61 0 11.22 0 17 0 C17 1.32 17 2.64 17 4 C12.71 4 8.42 4 4 4 C4 5.32 4 6.64 4 8 C7.96 8 11.92 8 16 8 C16 9.32 16 10.64 16 12 C12.04 12 8.08 12 4 12 C4 13.32 4 14.64 4 16 C8.29 16 12.58 16 17 16 C17 17.32 17 18.64 17 20 C11.39 20 5.78 20 0 20 C0 13.4 0 6.8 0 0 Z " fill="#C2E5EF" transform="translate(207,69)"/>
<path d="M0 0 C2.98273152 1.97808764 5.48945715 3.80873336 6.9375 7.1875 C7 9 7 9 6 11 C4.68 11 3.36 11 2 11 C0.59278582 9.59278582 -0.75761709 8.12759245 -2.0625 6.625 C-6.27826504 2.8577206 -11.24258882 0 -17 0 C-16.01 0.66 -15.02 1.32 -14 2 C-14.99 3.98 -15.98 5.96 -17 8 C-17.99 7.34 -18.98 6.68 -20 6 C-21.9896995 5.60986284 -23.99019869 5.26797351 -26 5 C-26 6.98 -26 8.96 -26 11 C-26.33 11 -26.66 11 -27 11 C-27 9.02 -27 7.04 -27 5 C-27.99 4.67 -28.98 4.34 -30 4 C-19.78581948 -4.05982483 -11.8413221 -6.75086445 0 0 Z " fill="#226C82" transform="translate(103,58)"/>
<path d="M0 0 C1.65 0 3.3 0 5 0 C5 5.28 5 10.56 5 16 C8.3 16 11.6 16 15 16 C15 10.72 15 5.44 15 0 C16.32 0 17.64 0 19 0 C19.02888514 3.14581423 19.04675923 6.29159469 19.0625 9.4375 C19.07087891 10.33533203 19.07925781 11.23316406 19.08789062 12.15820312 C19.09272461 13.43920898 19.09272461 13.43920898 19.09765625 14.74609375 C19.10551147 15.93223267 19.10551147 15.93223267 19.11352539 17.14233398 C19 19 19 19 18 20 C15.34346557 20.10002455 12.71870728 20.13877463 10.0625 20.125 C8.9497168 20.13080078 8.9497168 20.13080078 7.81445312 20.13671875 C2.25327002 20.12663501 2.25327002 20.12663501 0 19 C0 12.73 0 6.46 0 0 Z " fill="#C5E3E9" transform="translate(288,69)"/>
<path d="M0 0 C0.66 0 1.32 0 2 0 C2 6.6 2 13.2 2 20 C3.32 20 4.64 20 6 20 C6 18.02 6 16.04 6 14 C7.98 14 9.96 14 12 14 C10.68 14.33 9.36 14.66 8 15 C8.33 15.66 8.66 16.32 9 17 C9.99 17 10.98 17 12 17 C11.67 18.65 11.34 20.3 11 22 C7.99923768 22 5.0179853 21.89826284 2.01953125 21.78125 C0.27446289 21.71357422 0.27446289 21.71357422 -1.50585938 21.64453125 C-2.72080078 21.59683594 -3.93574219 21.54914063 -5.1875 21.5 C-6.41404297 21.45230469 -7.64058594 21.40460938 -8.90429688 21.35546875 C-11.93621841 21.23749515 -14.96811798 21.1189842 -18 21 C-18 20.67 -18 20.34 -18 20 C-12.06 20 -6.12 20 0 20 C0 18.68 0 17.36 0 16 C-4.29 16 -8.58 16 -13 16 C-13 14.68 -13 13.36 -13 12 C-9.04 12 -5.08 12 -1 12 C-1 10.68 -1 9.36 -1 8 C-4.96 8 -8.92 8 -13 8 C-13 6.68 -13 5.36 -13 4 C-8.71 4 -4.42 4 0 4 C0 2.68 0 1.36 0 0 Z " fill="#306E81" transform="translate(244,69)"/>
<path d="M0 0 C2.62527189 -0.05382106 5.24944713 -0.09358313 7.875 -0.125 C8.62136719 -0.14175781 9.36773437 -0.15851563 10.13671875 -0.17578125 C12.09194461 -0.1933959 14.04742021 -0.10320189 16 0 C18 2 18 2 18 6 C16.35 6 14.7 6 13 6 C13 5.34 13 4.68 13 4 C9.7 4 6.4 4 3 4 C3 7.96 3 11.92 3 16 C6.3 16 9.6 16 13 16 C13 15.34 13 14.68 13 14 C14.65 14 16.3 14 18 14 C18 15.98 18 17.96 18 20 C15.02077407 20.02683987 12.04178705 20.04676037 9.0625 20.0625 C7.78729492 20.07506836 7.78729492 20.07506836 6.48632812 20.08789062 C5.67744141 20.09111328 4.86855469 20.09433594 4.03515625 20.09765625 C3.2862915 20.10289307 2.53742676 20.10812988 1.76586914 20.11352539 C0 20 0 20 -1 19 C-1.10007008 16.17743509 -1.13875598 13.3847681 -1.125 10.5625 C-1.12886719 9.77294922 -1.13273438 8.98339844 -1.13671875 8.16992188 C-1.12663067 2.25326133 -1.12663067 2.25326133 0 0 Z " fill="#EDFDFE" transform="translate(145,69)"/>
<path d="M0 0 C1.485 0.99 1.485 0.99 3 2 C3.36076355 4.86001587 3.36076355 4.86001587 3.34057617 8.56103516 C3.34101425 9.23432358 3.34145233 9.907612 3.34190369 10.6013031 C3.33981056 12.83084938 3.3164562 15.05964731 3.29296875 17.2890625 C3.28737463 18.83319691 3.28310366 20.37733664 3.28010559 21.92147827 C3.26864226 25.98883727 3.23916262 30.05587571 3.20599365 34.12310791 C3.17532462 38.27213199 3.16160706 42.42120778 3.14648438 46.5703125 C3.11429405 54.7136889 3.06308008 62.85680459 3 71 C4.41949951 71.46188721 4.41949951 71.46188721 5.86767578 71.93310547 C9.62560851 73.21308723 12.60483965 74.96290379 16 77 C16 77.99 16 78.98 16 80 C10.38278634 78.00679515 4.2456073 75.2456073 0 71 C-0.24050903 68.0640564 -0.24050903 68.0640564 -0.22705078 64.25537109 C-0.22734283 63.56257553 -0.22763489 62.86977997 -0.22793579 62.1559906 C-0.22654031 59.86167966 -0.21096919 57.56769184 -0.1953125 55.2734375 C-0.19158314 53.68446022 -0.1887358 52.09548064 -0.18673706 50.50650024 C-0.17909453 46.32085846 -0.15944081 42.1353551 -0.1373291 37.94976807 C-0.11688396 33.68007276 -0.1077382 29.41035513 -0.09765625 25.140625 C-0.07619543 16.76035309 -0.04205211 8.38019375 0 0 Z " fill="#0A84AC" transform="translate(27,44)"/>
<path d="M0 0 C0.33 0 0.66 0 1 0 C1.08636719 0.82242188 1.17273437 1.64484375 1.26171875 2.4921875 C2.67887482 13.75142749 5.8357535 22.827981 15 30 C21.24382441 33.87117113 27.80304323 33.76835837 35 33 C44.19773323 30.68500896 49.05619777 25.91081474 53.88671875 17.96484375 C54.99595738 16.00713488 56.0137288 14.02208113 57 12 C57.66 12 58.32 12 59 12 C56.59129604 21.12772026 52.98840349 27.4318448 44.8125 32.4375 C37.40392584 36.61406946 30.31811085 36.74553058 22 36 C15.85825054 34.09503009 11.17121651 30.90731354 7 26 C6.29875 25.236875 5.5975 24.47375 4.875 23.6875 C-0.46570982 16.03248259 -0.37327217 9.06913133 0 0 Z " fill="#BBEAF0" transform="translate(61,70)"/>
<path d="M0 0 C0.33 0 0.66 0 1 0 C1.495 9.405 1.495 9.405 2 19 C3.65 19.33 5.3 19.66 7 20 C7 20.66 7 21.32 7 22 C1.50992722 22.94656427 -1.71897836 23.08784576 -7 21 C-7.99 21 -8.98 21 -10 21 C-10.33 21.66 -10.66 22.32 -11 23 C-11.33 22.34 -11.66 21.68 -12 21 C-12.33 21.33 -12.66 21.66 -13 22 C-14.78293062 22.01672261 -16.56662336 21.96282927 -18.34765625 21.87890625 C-19.42724609 21.83056641 -20.50683594 21.78222656 -21.61914062 21.73242188 C-22.75544922 21.67634766 -23.89175781 21.62027344 -25.0625 21.5625 C-26.20267578 21.51029297 -27.34285156 21.45808594 -28.51757812 21.40429688 C-31.34530023 21.27415067 -34.17271 21.13917121 -37 21 C-37 20.67 -37 20.34 -37 20 C-31.39 20 -25.78 20 -20 20 C-19.67 15.38 -19.34 10.76 -19 6 C-18.67 6 -18.34 6 -18 6 C-18 10.62 -18 15.24 -18 20 C-16.68 20 -15.36 20 -14 20 C-14 18.02 -14 16.04 -14 14 C-10.7 14 -7.4 14 -4 14 C-4 15.98 -4 17.96 -4 20 C-2.68 20 -1.36 20 0 20 C0 13.4 0 6.8 0 0 Z " fill="#2C7287" transform="translate(183,69)"/>
<path d="M0 0 C1.32 0.33 2.64 0.66 4 1 C4.144375 1.928125 4.28875 2.85625 4.4375 3.8125 C4.92100111 7.00725111 4.92100111 7.00725111 6 10 C4.28862462 18.165291 -0.31869268 23.30312315 -7 28 C-12.75964212 30.94109385 -19.4049879 30.84651552 -25.62109375 29.3828125 C-33.21774411 26.76965728 -37.75318918 22.21277029 -41.5 15.1875 C-42.25305922 10.38674746 -41.63133358 5.79472259 -41 1 C-40.67 1 -40.34 1 -40 1 C-39.98582031 1.7734375 -39.97164063 2.546875 -39.95703125 3.34375 C-39.55809019 12.05576023 -37.8456309 17.34665065 -31.5 23.375 C-25.57264294 27.22778209 -19.94732707 27.97622741 -13 27 C-10.39876063 25.89725894 -8.14234177 24.63335088 -5.77734375 23.09375 C-4 22 -4 22 -2 22 C0.76600417 16.66556339 2.29270211 12.01203207 3 6 C2.34 6 1.68 6 1 6 C0.505 3.03 0.505 3.03 0 0 Z " fill="#C1F0F7" transform="translate(109,71)"/>
<path d="M0 0 C2.0625 0.4375 2.0625 0.4375 4 1 C-12.63914691 11.07948323 -29.42346422 20.93157011 -46.390625 30.44921875 C-49.00494454 31.89953197 -49.00494454 31.89953197 -51.046875 33.76953125 C-53 35 -53 35 -55.41796875 34.87890625 C-58.33525841 33.88588027 -60.70236768 32.57318292 -63.3125 30.9375 C-64.19550781 30.38964844 -65.07851562 29.84179688 -65.98828125 29.27734375 C-66.65214844 28.85582031 -67.31601563 28.43429688 -68 28 C-67.01 27.67 -66.02 27.34 -65 27 C-62.9004828 28.15956599 -61.06208892 29.5463815 -59.1328125 30.96875 C-56.22467178 32.37488397 -55.0491136 32.03420227 -52 31 C-49.63911001 29.72568829 -47.39218335 28.4220748 -45.125 27 C-43.79049038 26.18078462 -42.45585118 25.3617803 -41.12109375 24.54296875 C-40.44030762 24.12192871 -39.75952148 23.70088867 -39.05810547 23.26708984 C-35.785739 21.25243006 -32.4860916 19.28381522 -29.1875 17.3125 C-25.86130194 15.31993922 -22.53631637 13.32586311 -19.22265625 11.3125 C-13.94738753 8.11233699 -8.5945279 5.10731435 -3.15234375 2.19921875 C-1.08447148 1.17565028 -1.08447148 1.17565028 0 0 Z " fill="#27A1C4" transform="translate(145,113)"/>
<path d="M0 0 C2.6875 -0.3125 2.6875 -0.3125 6 0 C7.68873879 1.64429829 9.35305515 3.31384218 11 5 C13.04753032 5.94257682 15.07983048 6.65394334 17.23046875 7.32421875 C19 8 19 8 21 10 C21.125 13.625 21.125 13.625 21 17 C20.34 17.33 19.68 17.66 19 18 C18.87625 16.88625 18.7525 15.7725 18.625 14.625 C18.3534187 10.96896323 18.3534187 10.96896323 16 9 C12.17435335 9.18757062 12.17435335 9.18757062 9 11 C8.7499227 13.45809998 8.7499227 13.45809998 9 16 C11.46278801 18.46278801 13.70676982 18.99771255 17 20 C17 20.33 17 20.66 17 21 C13.75 21.3125 13.75 21.3125 10 21 C7.24894565 18.47200411 6.15701552 16.48086004 5 12.9375 C4.21987066 9.89404149 4.21987066 9.89404149 1.875 8 C0 6 0 6 -0.25 2.75 C-0.1675 1.8425 -0.085 0.935 0 0 Z " fill="#E7FAFC" transform="translate(77,63)"/>
<path d="M0 0 C6.27 0 12.54 0 19 0 C19 1.32 19 2.64 19 4 C16.69 4 14.38 4 12 4 C12 9.28 12 14.56 12 20 C10.68 20 9.36 20 8 20 C8 14.72 8 9.44 8 4 C5.36 4 2.72 4 0 4 C0 2.68 0 1.36 0 0 Z " fill="#D8F2F7" transform="translate(349,69)"/>
<path d="M0 0 C0.66 0 1.32 0 2 0 C2 6.6 2 13.2 2 20 C7.61 20 13.22 20 19 20 C19 20.33 19 20.66 19 21 C15.37 21 11.74 21 8 21 C8 21.66 8 22.32 8 23 C5.66705225 23.04241723 3.33297433 23.04092937 1 23 C0.67 22.67 0.34 22.34 0 22 C-1.093125 21.896875 -2.18625 21.79375 -3.3125 21.6875 C-7.32481087 20.93944204 -8.57665479 20.19881568 -11 17 C-11 16.34 -11 15.68 -11 15 C-11.99 15 -12.98 15 -14 15 C-14 16.65 -14 18.3 -14 20 C-14.33 20 -14.66 20 -15 20 C-15 18.02 -15 16.04 -15 14 C-11.29706315 13.66336938 -9.60465619 13.52263985 -6.625 15.875 C-5 18 -5 18 -5 20 C-3.68 20 -2.36 20 -1 20 C-1.185625 19.0925 -1.37125 18.185 -1.5625 17.25 C-2.35091761 11.85322593 -1.76311227 6.37570198 -1 1 C-0.67 0.67 -0.34 0.34 0 0 Z " fill="#467F91" transform="translate(205,69)"/>
<path d="M0 0 C12.32142857 -0.13392857 12.32142857 -0.13392857 16 1 C16 2.98 16 4.96 16 7 C15.34 5.68 14.68 4.36 14 3 C10.37 3 6.74 3 3 3 C3.33 4.98 3.66 6.96 4 9 C6.31 9.66 8.62 10.32 11 11 C11 11.66 11 12.32 11 13 C8.36 13 5.72 13 3 13 C3 14.98 3 16.96 3 19 C2.01 19 1.02 19 0 19 C0 12.73 0 6.46 0 0 Z " fill="#EEFDFE" transform="translate(247,70)"/>
<path d="M0 0 C3.3 0 6.6 0 10 0 C10.33 0.66 10.66 1.32 11 2 C9.02 2.33 7.04 2.66 5 3 C4.67 5.31 4.34 7.62 4 10 C6.97 10 9.94 10 13 10 C12.67 11.65 12.34 13.3 12 15 C9.36 14.34 6.72 13.68 4 13 C4 14.98 4 16.96 4 19 C2.68 19 1.36 19 0 19 C0 12.73 0 6.46 0 0 Z " fill="#E4F8FB" transform="translate(186,70)"/>
<path d="M0 0 C5.28 0 10.56 0 16 0 C16 4.62 16 9.24 16 14 C15.01 14 14.02 14 13 14 C13 14.99 13 15.98 13 17 C12.01 17 11.02 17 10 17 C9.34 15.35 8.68 13.7 8 12 C9.32 12 10.64 12 12 12 C12 9.03 12 6.06 12 3 C5.565 3.495 5.565 3.495 -1 4 C-0.67 2.68 -0.34 1.36 0 0 Z " fill="#EFFDFE" transform="translate(270,70)"/>
<path d="M0 0 C0.74572266 -0.00386719 1.49144531 -0.00773437 2.25976562 -0.01171875 C7.81086499 -0.00163501 7.81086499 -0.00163501 8.9375 1.125 C8.97813832 2.79117115 8.980221 4.45888095 8.9375 6.125 C7.6175 6.125 6.2975 6.125 4.9375 6.125 C4.9375 5.465 4.9375 4.805 4.9375 4.125 C1.6375 4.125 -1.6625 4.125 -5.0625 4.125 C-5.0625 5.445 -5.0625 6.765 -5.0625 8.125 C-5.7225 8.125 -6.3825 8.125 -7.0625 8.125 C-7.0625 9.445 -7.0625 10.765 -7.0625 12.125 C-8.0525 11.795 -9.0425 11.465 -10.0625 11.125 C-10.0625 7.825 -10.0625 4.525 -10.0625 1.125 C-6.88856311 -0.46196844 -3.48075795 -0.0181447 0 0 Z " fill="#D6F1F5" transform="translate(339.0625,68.875)"/>
<path d="M0 0 C1.32 0 2.64 0 4 0 C4.09796875 0.58007812 4.1959375 1.16015625 4.296875 1.7578125 C5.52812317 8.19002274 7.46230521 12.53279673 12.25 17.1875 C15.71479437 19.47111447 19.07221752 20.66854831 23 22 C21.68 22.33 20.36 22.66 19 23 C19 23.66 19 24.32 19 25 C11.52810837 22.94361484 6.53112983 18.17805164 2.53515625 11.58203125 C0.71089916 7.70629643 -0.5621522 4.35667955 0 0 Z " fill="#256279" transform="translate(63,78)"/>
<path d="M0 0 C0.33 0.66 0.66 1.32 1 2 C3.64 2 6.28 2 9 2 C9 7.28 9 12.56 9 18 C10.32 18.33 11.64 18.66 13 19 C11.35 19 9.7 19 8 19 C8 13.72 8 8.44 8 3 C5.69 3 3.38 3 1 3 C1.33 3.66 1.66 4.32 2 5 C2.07033769 6.87379605 2.0843022 8.75001102 2.0625 10.625 C2.05347656 11.62789062 2.04445313 12.63078125 2.03515625 13.6640625 C2.02355469 14.43492188 2.01195312 15.20578125 2 16 C1.34 16.33 0.68 16.66 0 17 C-0.33 13.7 -0.66 10.4 -1 7 C-5.29 6.67 -9.58 6.34 -14 6 C-14 4.68 -14 3.36 -14 2 C-10.7 2 -7.4 2 -4 2 C-4 2.66 -4 3.32 -4 4 C-2.68 4 -1.36 4 0 4 C0 2.68 0 1.36 0 0 Z " fill="#528C9A" transform="translate(348,71)"/>
<path d="M0 0 C8.0425919 -0.58491577 14.1071939 1.56010437 20.5 6.5 C23.89285714 9.89285714 23.89285714 9.89285714 24 13 C23.67 13.66 23.34 14.32 23 15 C21.68 15 20.36 15 19 15 C18.4740625 13.63875 18.4740625 13.63875 17.9375 12.25 C15.15660777 7.58527755 11.7890211 5.85816034 6.5625 4.25 C6.046875 4.1675 5.53125 4.085 5 4 C5 3.01 5 2.02 5 1 C3.35 1 1.7 1 0 1 C0 0.67 0 0.34 0 0 Z " fill="#497A8A" transform="translate(86,54)"/>
<path d="M0 0 C1.32 0 2.64 0 4 0 C4.02888514 3.14581423 4.04675923 6.29159469 4.0625 9.4375 C4.07087891 10.33533203 4.07925781 11.23316406 4.08789062 12.15820312 C4.09272461 13.43920898 4.09272461 13.43920898 4.09765625 14.74609375 C4.10551147 15.93223267 4.10551147 15.93223267 4.11352539 17.14233398 C4 19 4 19 3 20 C0.30345146 20.07319621 -2.36691458 20.09242537 -5.0625 20.0625 C-5.82111328 20.05798828 -6.57972656 20.05347656 -7.36132812 20.04882812 C-9.24091871 20.0370068 -11.12046899 20.01907078 -13 20 C-13 19.67 -13 19.34 -13 19 C-8.05 19 -3.1 19 2 19 C2 18.34 2 17.68 2 17 C-1.96 17 -5.92 17 -10 17 C-10 16.67 -10 16.34 -10 16 C-6.7 16 -3.4 16 0 16 C0 10.72 0 5.44 0 0 Z " fill="#D7F3F8" transform="translate(303,69)"/>
<path d="M0 0 C5.94 0 11.88 0 18 0 C18 1.32 18 2.64 18 4 C13.71 4 9.42 4 5 4 C5 3.34 5 2.68 5 2 C4.01 2 3.02 2 2 2 C2 7.94 2 13.88 2 20 C1.34 20 0.68 20 0 20 C0 13.4 0 6.8 0 0 Z " fill="#C3E5EC" transform="translate(309,69)"/>
<path d="M0 0 C0.66 0.33 1.32 0.66 2 1 C2.027193 2.58323688 2.04648306 4.16661062 2.0625 5.75 C2.07410156 6.63171875 2.08570313 7.5134375 2.09765625 8.421875 C2.00826198 10.7818838 1.66912821 12.74498524 1 15 C0.34 15 -0.32 15 -1 15 C-1 14.34 -1 13.68 -1 13 C-4.63 13 -8.26 13 -12 13 C-12.33 13.99 -12.66 14.98 -13 16 C-13 14.68 -13 13.36 -13 12 C-9.04 12 -5.08 12 -1 12 C-1 10.68 -1 9.36 -1 8 C-4.96 8 -8.92 8 -13 8 C-13 6.68 -13 5.36 -13 4 C-8.71 4 -4.42 4 0 4 C0 2.68 0 1.36 0 0 Z " fill="#407A8C" transform="translate(224,69)"/>
<path d="M0 0 C0.66 0 1.32 0 2 0 C2 6.6 2 13.2 2 20 C3.32 20 4.64 20 6 20 C6 18.02 6 16.04 6 14 C7.98 14 9.96 14 12 14 C10.68 14.33 9.36 14.66 8 15 C8.33 15.66 8.66 16.32 9 17 C9.99 17 10.98 17 12 17 C11.67 18.65 11.34 20.3 11 22 C7.99923768 22 5.0179853 21.89826284 2.01953125 21.78125 C0.27446289 21.71357422 0.27446289 21.71357422 -1.50585938 21.64453125 C-2.72080078 21.59683594 -3.93574219 21.54914063 -5.1875 21.5 C-6.41404297 21.45230469 -7.64058594 21.40460938 -8.90429688 21.35546875 C-11.93621841 21.23749515 -14.96811798 21.1189842 -18 21 C-18 20.67 -18 20.34 -18 20 C-12.06 20 -6.12 20 0 20 C0 13.4 0 6.8 0 0 Z " fill="#407F91" transform="translate(244,69)"/>
<path d="M0 0 C1.81242052 -0.02687279 3.62495233 -0.04633715 5.4375 -0.0625 C6.44683594 -0.07410156 7.45617187 -0.08570312 8.49609375 -0.09765625 C11 0 11 0 12 1 C12.14257189 4.33618231 12.04228157 7.65975606 12 11 C7.71 11 3.42 11 -1 11 C-1 9.68 -1 8.36 -1 7 C2.96 7 6.92 7 11 7 C11 5.68 11 4.36 11 3 C7.37 3 3.74 3 0 3 C0 2.01 0 1.02 0 0 Z " fill="#2F6D80" transform="translate(315,74)"/>
<path d="M0 0 C3.57356623 0 5.09924904 1.12741029 7.76953125 3.421875 C9.86817234 6.11346547 9.38081919 8.76303687 9 12 C6.875 12.4375 6.875 12.4375 4 12 C1.5641642 9.97199909 -0.48920412 7.7944044 -2 5 C-1.73010224 2.85624065 -1.54355515 1.54355515 0 0 Z " fill="#B2E3EA" transform="translate(95,79)"/>
<path d="M0 0 C2.97 0 5.94 0 9 0 C9 2.64 9 5.28 9 8 C7.02 8 5.04 8 3 8 C3.33 9.32 3.66 10.64 4 12 C2.68 12 1.36 12 0 12 C0 8.04 0 4.08 0 0 Z " fill="#326D7F" transform="translate(272,73)"/>
<path d="M0 0 C4.95 0 9.9 0 15 0 C15 0.99 15 1.98 15 3 C11.04 3 7.08 3 3 3 C3 4.65 3 6.3 3 8 C3.62648437 7.97679688 4.25296875 7.95359375 4.8984375 7.9296875 C5.71570313 7.91164063 6.53296875 7.89359375 7.375 7.875 C8.18710938 7.85179688 8.99921875 7.82859375 9.8359375 7.8046875 C12 8 12 8 14 10 C11.85423363 10.02685938 9.70837355 10.04633088 7.5625 10.0625 C6.36753906 10.07410156 5.17257813 10.08570312 3.94140625 10.09765625 C1 10 1 10 0 9 C-0.14193337 5.99668982 -0.04236378 3.00782866 0 0 Z " fill="#EBFCFD" transform="translate(208,78)"/>
<path d="M0 0 C1.47668858 0.0133035 2.95331108 0.03716415 4.4296875 0.0703125 C5.18378906 0.07933594 5.93789063 0.08835937 6.71484375 0.09765625 C8.57826004 0.1212438 10.44151343 0.15711531 12.3046875 0.1953125 C12.3046875 0.5253125 12.3046875 0.8553125 12.3046875 1.1953125 C7.3546875 1.5253125 2.4046875 1.8553125 -2.6953125 2.1953125 C-3.0253125 3.1853125 -3.3553125 4.1753125 -3.6953125 5.1953125 C-2.7053125 4.8653125 -1.7153125 4.5353125 -0.6953125 4.1953125 C-0.6953125 8.1553125 -0.6953125 12.1153125 -0.6953125 16.1953125 C-1.3553125 15.2053125 -2.0153125 14.2153125 -2.6953125 13.1953125 C-3.0253125 15.1753125 -3.3553125 17.1553125 -3.6953125 19.1953125 C-4.3553125 19.1953125 -5.0153125 19.1953125 -5.6953125 19.1953125 C-5.74911828 16.40339045 -5.78888919 13.6124984 -5.8203125 10.8203125 C-5.83707031 10.02625 -5.85382813 9.2321875 -5.87109375 8.4140625 C-5.88866723 6.34039235 -5.79866418 4.26648009 -5.6953125 2.1953125 C-3.6953125 0.1953125 -3.6953125 0.1953125 0 0 Z " fill="#BCDFE6" transform="translate(272.6953125,68.8046875)"/>
<path d="M0 0 C1.32 0.33 2.64 0.66 4 1 C4.144375 1.928125 4.28875 2.85625 4.4375 3.8125 C4.92100111 7.00725111 4.92100111 7.00725111 6 10 C4.48364888 17.23479389 0.71059248 21.86790413 -4.68359375 26.69921875 C-7 28 -7 28 -9.78515625 27.70703125 C-10.51605469 27.47371094 -11.24695313 27.24039063 -12 27 C-4.5 22 -4.5 22 -2 22 C0.76600417 16.66556339 2.29270211 12.01203207 3 6 C2.34 6 1.68 6 1 6 C0.67 4.02 0.34 2.04 0 0 Z " fill="#B2E6F0" transform="translate(109,71)"/>
<path d="M0 0 C0.33 0 0.66 0 1 0 C1.33 5.61 1.66 11.22 2 17 C5.96 16.67 9.92 16.34 14 16 C11.03 15.67 8.06 15.34 5 15 C5 14.67 5 14.34 5 14 C7.97 14 10.94 14 14 14 C14 13.34 14 12.68 14 12 C15.65 12 17.3 12 19 12 C19 13.98 19 15.96 19 18 C16.02077407 18.02683987 13.04178705 18.04676037 10.0625 18.0625 C8.78729492 18.07506836 8.78729492 18.07506836 7.48632812 18.08789062 C6.67744141 18.09111328 5.86855469 18.09433594 5.03515625 18.09765625 C4.2862915 18.10289307 3.53742676 18.10812988 2.76586914 18.11352539 C1 18 1 18 0 17 C-0.07325168 14.13732433 -0.09238205 11.299281 -0.0625 8.4375 C-0.05798828 7.63119141 -0.05347656 6.82488281 -0.04882812 5.99414062 C-0.03700518 3.99606244 -0.01906914 1.99802217 0 0 Z " fill="#CCEEF1" transform="translate(144,71)"/>
<path d="M0 0 C0.99 0 1.98 0 3 0 C0.24900654 10.42481734 -4.31667707 16.45959032 -13.53515625 22.06640625 C-16.46589109 23.17646271 -18.03762652 22.88184737 -21 22 C-20.44054687 21.7215625 -19.88109375 21.443125 -19.3046875 21.15625 C-18.54414062 20.7746875 -17.78359375 20.393125 -17 20 C-16.21882813 19.6184375 -15.43765625 19.236875 -14.6328125 18.84375 C-7.79998474 15.18254634 -4.16586151 11.07938036 -1 4 C-0.62568942 2.67758536 -0.27609498 1.34635079 0 0 Z " fill="#AFE2E9" transform="translate(117,82)"/>
<path d="M0 0 C0.33 0 0.66 0 1 0 C1.495 8.415 1.495 8.415 2 17 C8.27 17 14.54 17 21 17 C21 17.66 21 18.32 21 19 C8.13 19 -4.74 19 -18 19 C-17.67 18.34 -17.34 17.68 -17 17 C-11.39 17 -5.78 17 0 17 C-0.66 16.67 -1.32 16.34 -2 16 C-2 15.01 -2 14.02 -2 13 C-1.34 13 -0.68 13 0 13 C0 8.71 0 4.42 0 0 Z " fill="#498392" transform="translate(286,71)"/>
<path d="M0 0 C2.125 0.9375 2.125 0.9375 4 2 C3.67 2.33 3.34 2.66 3 3 C2.91330568 4.4887186 2.89296506 5.981445 2.90234375 7.47265625 C2.90556641 8.37177734 2.90878906 9.27089844 2.91210938 10.19726562 C2.92048828 11.14279297 2.92886719 12.08832031 2.9375 13.0625 C2.94201172 14.01189453 2.94652344 14.96128906 2.95117188 15.93945312 C2.9629989 18.29303065 2.97947975 20.64648477 3 23 C1.02 23.66 -0.96 24.32 -3 25 C-3 24.34 -3 23.68 -3 23 C-3.66 22.34 -4.32 21.68 -5 21 C-3.35 21 -1.7 21 0 21 C-0.66 18.69 -1.32 16.38 -2 14 C-1.34 14 -0.68 14 0 14 C-0.14084796 12.20793453 -0.28783701 10.41635083 -0.4375 8.625 C-0.51871094 7.62726563 -0.59992188 6.62953125 -0.68359375 5.6015625 C-0.84965626 3.02072387 -0.84965626 3.02072387 -2 1 C-1.34 0.67 -0.68 0.34 0 0 Z " fill="#2B6373" transform="translate(265,68)"/>
<path d="M0 0 C4.45831922 -0.02933699 8.91661318 -0.04691123 13.375 -0.0625 C14.62667969 -0.07087891 15.87835938 -0.07925781 17.16796875 -0.08789062 C24.1800701 -0.10624691 31.04232614 0.09958321 38 1 C38 1.33 38 1.66 38 2 C25.22638801 2.82950418 12.76060509 3.08707645 0 2 C0 1.34 0 0.68 0 0 Z " fill="#145D74" transform="translate(186,67)"/>
<path d="M0 0 C0.33 0.66 0.66 1.32 1 2 C1.66 2 2.32 2 3 2 C3 2.66 3 3.32 3 4 C3.99 4 4.98 4 6 4 C8.16163254 13.62353922 9.55460359 22.11047358 8 32 C7.34 32 6.68 32 6 32 C6.06960937 30.44152344 6.06960937 30.44152344 6.140625 28.8515625 C6.47655838 18.08748183 5.73166265 9.28392426 -2 1 C-1.34 0.67 -0.68 0.34 0 0 Z " fill="#1D6578" transform="translate(113,54)"/>
<path d="M0 0 C2.46800047 1.15173355 4.04783565 2.04783565 6 4 C6.66666667 6.33333333 7.33333333 8.66666667 8 11 C9.98220878 13.30867149 9.98220878 13.30867149 13.5625 14 C14.696875 14.33 15.83125 14.66 17 15 C17.33 15.66 17.66 16.32 18 17 C16.35 17 14.7 17 13 17 C13 16.34 13 15.68 13 15 C10.69 15 8.38 15 6 15 C4.58249845 12.46874724 3.8092348 10.27509226 3.0625 7.4375 C2.07994023 4.25863017 1.56216348 2.9798536 -1 1 C-0.67 0.67 -0.34 0.34 0 0 Z " fill="#296F83" transform="translate(77,70)"/>
<path d="M0 0 C3.3 0 6.6 0 10 0 C10 1.98 10 3.96 10 6 C6.7 6 3.4 6 0 6 C0 4.02 0 2.04 0 0 Z " fill="#3B7686" transform="translate(190,73)"/>
<path d="M0 0 C3.3 0 6.6 0 10 0 C10 1.98 10 3.96 10 6 C6.7 6 3.4 6 0 6 C0 4.02 0 2.04 0 0 Z " fill="#4C8091" transform="translate(250,73)"/>
<path d="M0 0 C5.50102837 0.41257713 9.76201664 2.54722675 14 6 C14 6.66 14 7.32 14 8 C7.27494919 7.83560987 3.78944649 6.78944649 -1 2 C-0.67 1.34 -0.34 0.68 0 0 Z " fill="#2BC0EC" transform="translate(129,27)"/>
<path d="M0 0 C0.33 0 0.66 0 1 0 C1 4.95 1 9.9 1 15 C3.31 15 5.62 15 8 15 C7.67 10.38 7.34 5.76 7 1 C7.99 0.67 8.98 0.34 10 0 C10 5.28 10 10.56 10 16 C6.7 16 3.4 16 0 16 C0 10.72 0 5.44 0 0 Z " fill="#3E7B8B" transform="translate(293,69)"/>
<path d="M0 0 C0.33 0 0.66 0 1 0 C1 4.62 1 9.24 1 14 C0.01 14 -0.98 14 -2 14 C-2 14.99 -2 15.98 -2 17 C-2.99 17 -3.98 17 -5 17 C-5.66 15.35 -6.32 13.7 -7 12 C-5.68 12 -4.36 12 -3 12 C-3 9.03 -3 6.06 -3 3 C-2.67 3 -2.34 3 -2 3 C-2 4.65 -2 6.3 -2 8 C-1.34 8 -0.68 8 0 8 C0 5.36 0 2.72 0 0 Z " fill="#D5EFF5" transform="translate(285,70)"/>
<path d="M0 0 C4.95 0.33 9.9 0.66 15 1 C15 2.32 15 3.64 15 5 C11.7 5 8.4 5 5 5 C5 4.34 5 3.68 5 3 C3.02 3 1.04 3 -1 3 C-0.67 2.01 -0.34 1.02 0 0 Z " fill="#457C8B" transform="translate(329,80)"/>
<path d="M0 0 C4.29 0.66 8.58 1.32 13 2 C12.67 2.99 12.34 3.98 12 5 C8.7 5 5.4 5 2 5 C2 6.65 2 8.3 2 10 C1.34 10 0.68 10 0 10 C0 6.7 0 3.4 0 0 Z " fill="#F0FDFE" transform="translate(166,78)"/>
<path d="M0 0 C0.33 0 0.66 0 1 0 C1.07347656 1.80984375 1.07347656 1.80984375 1.1484375 3.65625 C1.22353532 5.27085306 1.29908003 6.88543539 1.375 8.5 C1.4059375 9.29148437 1.436875 10.08296875 1.46875 10.8984375 C1.72856223 16.18128612 2.56333706 20.90743869 4 26 C3.34 26 2.68 26 2 26 C-3.13953938 17.06167065 -1.9579387 9.70878693 0 0 Z " fill="#1D687E" transform="translate(60,65)"/>
<path d="M0 0 C0.94875 0.04125 1.8975 0.0825 2.875 0.125 C2.875 2.105 2.875 4.085 2.875 6.125 C-0.425 6.125 -3.725 6.125 -7.125 6.125 C-4.14540816 0.16581633 -4.14540816 0.16581633 0 0 Z " fill="#336F83" transform="translate(176.125,72.875)"/>
<path d="M0 0 C5.28 0 10.56 0 16 0 C16 0.99 16 1.98 16 3 C8.08 3.495 8.08 3.495 0 4 C0 2.68 0 1.36 0 0 Z " fill="#F1FEFE" transform="translate(228,70)"/>
<path d="M0 0 C5.28 0 10.56 0 16 0 C16 0.99 16 1.98 16 3 C8.08 3.495 8.08 3.495 0 4 C0 2.68 0 1.36 0 0 Z " fill="#E8FEFE" transform="translate(208,70)"/>
<path d="M0 0 C5.94 0.99 5.94 0.99 12 2 C11.67 3.65 11.34 5.3 11 7 C6.545 6.01 6.545 6.01 2 5 C2 6.32 2 7.64 2 9 C1.34 9 0.68 9 0 9 C0 6.03 0 3.06 0 0 Z " fill="#F6FDFD" transform="translate(187,78)"/>
<path d="M0 0 C3.96 0 7.92 0 12 0 C12 1.32 12 2.64 12 4 C8.04 4 4.08 4 0 4 C0 2.68 0 1.36 0 0 Z " fill="#D5F2F6" transform="translate(231,77)"/>
<path d="M0 0 C0.66 0.33 1.32 0.66 2 1 C2 3.97 2 6.94 2 10 C1.67 8.68 1.34 7.36 1 6 C-3.29 6 -7.58 6 -12 6 C-12 5.01 -12 4.02 -12 3 C-8.37 3 -4.74 3 -1 3 C-1 3.66 -1 4.32 -1 5 C-0.34 5 0.32 5 1 5 C0.67 3.35 0.34 1.7 0 0 Z " fill="#175B6F" transform="translate(224,79)"/>
<path d="M0 0 C3.63 1.32 7.26 2.64 11 4 C10.01 4.33 9.02 4.66 8 5 C7.67 6.65 7.34 8.3 7 10 C4.04590299 8.62845496 1.55991624 7.01136276 -1 5 C-0.01 4.67 0.98 4.34 2 4 C2 3.34 2 2.68 2 2 C1.34 2 0.68 2 0 2 C0 1.34 0 0.68 0 0 Z " fill="#24B2DF" transform="translate(81,146)"/>
<path d="M0 0 C1.93884889 0.28256092 3.87605961 0.5763793 5.8125 0.875 C6.89144531 1.03742188 7.97039062 1.19984375 9.08203125 1.3671875 C12 2 12 2 15 4 C15 4.66 15 5.32 15 6 C8.07 5.505 8.07 5.505 1 5 C0.67 3.35 0.34 1.7 0 0 Z " fill="#F0FEFE" transform="translate(331,76)"/>
<path d="M0 0 C3.3 0 6.6 0 10 0 C10 3.3 10 6.6 10 10 C9.01 10.495 9.01 10.495 8 11 C8 8.36 8 5.72 8 3 C5.03 3 2.06 3 -1 3 C-0.67 2.01 -0.34 1.02 0 0 Z " fill="#EFFEFE" transform="translate(172,70)"/>
<path d="M0 0 C5.28 0 10.56 0 16 0 C16 0.66 16 1.32 16 2 C13.11584117 3.44207941 10.58278472 3.09394887 7.375 3.0625 C6.18648438 3.05347656 4.99796875 3.04445313 3.7734375 3.03515625 C2.85820313 3.02355469 1.94296875 3.01195313 1 3 C0.67 2.01 0.34 1.02 0 0 Z " fill="#236677" transform="translate(82,101)"/>
<path d="M0 0 C0.33 0 0.66 0 1 0 C1 4.62 1 9.24 1 14 C2.32 14.33 3.64 14.66 5 15 C-0.29653879 15.93959624 -5.08668517 15.98841115 -10.4375 15.5625 C-11.16904297 15.51029297 -11.90058594 15.45808594 -12.65429688 15.40429688 C-14.43668622 15.27615124 -16.2184257 15.1390184 -18 15 C-18 14.67 -18 14.34 -18 14 C-12.39 14 -6.78 14 -1 14 C-0.67 9.38 -0.34 4.76 0 0 Z " fill="#598F9E" transform="translate(164,75)"/>
<path d="M0 0 C2.35119399 3.52679099 2.21443452 5.02879485 2.125 9.1875 C2.10695313 10.27417969 2.08890625 11.36085938 2.0703125 12.48046875 C2.03550781 13.72763672 2.03550781 13.72763672 2 15 C1.01 15.495 1.01 15.495 0 16 C0 14.35 0 12.7 0 11 C-1.32 11 -2.64 11 -4 11 C-4.33 11.66 -4.66 12.32 -5 13 C-5 11.02 -5 9.04 -5 7 C-4.67 7.66 -4.34 8.32 -4 9 C-3.01 8.34 -2.02 7.68 -1 7 C-0.26393501 3.43230448 -0.26393501 3.43230448 0 0 Z " fill="#D6F3F6" transform="translate(118,67)"/>
<path d="M0 0 C2.62527189 -0.05382106 5.24944713 -0.09358313 7.875 -0.125 C8.62136719 -0.14175781 9.36773437 -0.15851563 10.13671875 -0.17578125 C12.09194461 -0.1933959 14.04742021 -0.10320189 16 0 C18 2 18 2 18 6 C16.35 6 14.7 6 13 6 C13 5.01 13 4.02 13 3 C12.34 3 11.68 3 11 3 C11 2.34 11 1.68 11 1 C7.37 1 3.74 1 0 1 C0 0.67 0 0.34 0 0 Z " fill="#C3E5EC" transform="translate(145,69)"/>
<path d="M0 0 C0.33 0.66 0.66 1.32 1 2 C0.154375 2.03738281 -0.69125 2.07476562 -1.5625 2.11328125 C-8.31064379 2.50436686 -13.82797163 3.21653623 -20 6 C-20 5.01 -20 4.02 -20 3 C-13.25948218 -0.34157586 -7.45132253 -2.13755111 0 0 Z " fill="#176177" transform="translate(96,45)"/>
<path d="M0 0 C5.94 0.33 11.88 0.66 18 1 C17.01 1.495 17.01 1.495 16 2 C15.67 2.66 15.34 3.32 15 4 C15 3.34 15 2.68 15 2 C14.37351563 2.144375 13.74703125 2.28875 13.1015625 2.4375 C12.28429687 2.623125 11.46703125 2.80875 10.625 3 C9.81289062 3.185625 9.00078125 3.37125 8.1640625 3.5625 C6 4 6 4 4 4 C3.67 4.66 3.34 5.32 3 6 C2.34 5.67 1.68 5.34 1 5 C0.67 3.35 0.34 1.7 0 0 Z " fill="#0C6077" transform="translate(225,89)"/>
<path d="M0 0 C0.45375 0.639375 0.9075 1.27875 1.375 1.9375 C2.83921726 4.09702406 2.83921726 4.09702406 5 5 C3.35 6.65 1.7 8.3 0 10 C-2.9375 9.25 -2.9375 9.25 -6 8 C-6.875 5.875 -6.875 5.875 -7 4 C-4.69 4.66 -2.38 5.32 0 6 C0 4.02 0 2.04 0 0 Z " fill="#1D6880" transform="translate(104,85)"/>
<path d="M0 0 C0.66 0 1.32 0 2 0 C2.33 1.32 2.66 2.64 3 4 C-2.17578125 7.22265625 -2.17578125 7.22265625 -4 8 C-4.99 7.67 -5.98 7.34 -7 7 C-6.67 5.68 -6.34 4.36 -6 3 C-4.02 2.67 -2.04 2.34 0 2 C0 1.34 0 0.68 0 0 Z " fill="#2BBFEF" transform="translate(61,19)"/>
<path d="M0 0 C-1.32 0.33 -2.64 0.66 -4 1 C-4 1.66 -4 2.32 -4 3 C-7.17412177 4.58706088 -10.53638667 4.28477127 -14 4 C-17 3 -17 3 -19 2 C-19 1.67 -19 1.34 -19 1 C-16.77100213 0.83109082 -14.54179338 0.66496313 -12.3125 0.5 C-10.45044922 0.36078125 -10.45044922 0.36078125 -8.55078125 0.21875 C-5.68500671 0.04220063 -2.86900043 -0.04388528 0 0 Z " fill="#0C6178" transform="translate(102,106)"/>
<path d="M0 0 C1.65 0 3.3 0 5 0 C5 0.66 5 1.32 5 2 C7.97 2 10.94 2 14 2 C14 2.33 14 2.66 14 3 C10.92382812 3.29296875 10.92382812 3.29296875 7.84765625 3.5859375 C7.23792969 3.72257812 6.62820313 3.85921875 6 4 C5.67 4.66 5.34 5.32 5 6 C3.35 5.67 1.7 5.34 0 5 C0 3.35 0 1.7 0 0 Z " fill="#BDE1E9" transform="translate(329,83)"/>
<path d="M0 0 C6.31448099 1.63231481 11.78603616 3.79690638 16 9 C16 9.99 16 10.98 16 12 C15.34 12 14.68 12 14 12 C13.505 11.278125 13.01 10.55625 12.5 9.8125 C8.99131584 5.86523032 4.76413348 4.13658658 0 2 C0 1.34 0 0.68 0 0 Z " fill="#BFECF4" transform="translate(92,56)"/>
<path d="M0 0 C2.31 0 4.62 0 7 0 C7.33 0.66 7.66 1.32 8 2 C6.56429734 2.81567174 5.12636566 3.62742093 3.6875 4.4375 C2.48673828 5.11619141 2.48673828 5.11619141 1.26171875 5.80859375 C-1 7 -1 7 -4 8 C-4 7.34 -4 6.68 -4 6 C-3.34 6 -2.68 6 -2 6 C-1.7834375 5.071875 -1.7834375 5.071875 -1.5625 4.125 C-1 2 -1 2 0 0 Z " fill="#016A8E" transform="translate(82,0)"/>
<path d="M0 0 C0.33 1.32 0.66 2.64 1 4 C7.93 4.495 7.93 4.495 15 5 C15 5.66 15 6.32 15 7 C10.05 7 5.1 7 0 7 C0 4.69 0 2.38 0 0 Z " fill="#F1FEFF" transform="translate(290,81)"/>
<path d="M0 0 C-0.66 1.65 -1.32 3.3 -2 5 C-2.99 4.67 -3.98 4.34 -5 4 C-5 7.3 -5 10.6 -5 14 C-4.34 14 -3.68 14 -3 14 C-3 12.35 -3 10.7 -3 9 C-2.67 9 -2.34 9 -2 9 C-2 10.98 -2 12.96 -2 15 C-3.32 15 -4.64 15 -6 15 C-6 10.38 -6 5.76 -6 1 C-3 0 -3 0 0 0 Z " fill="#DBF3F9" transform="translate(171,74)"/>
<path d="M0 0 C2.0625 0.4375 2.0625 0.4375 4 1 C4.625 2.875 4.625 2.875 5 5 C4.34 5.66 3.68 6.32 3 7 C0.375 6.625 0.375 6.625 -2 6 C-1.125 1.125 -1.125 1.125 0 0 Z " fill="#ABD4DC" transform="translate(89,73)"/>
<path d="M0 0 C4.29 0 8.58 0 13 0 C13 1.32 13 2.64 13 4 C7.72 4 2.44 4 -3 4 C-2.67 3.34 -2.34 2.68 -2 2 C1.63 2 5.26 2 9 2 C6.03 1.67 3.06 1.34 0 1 C0 0.67 0 0.34 0 0 Z " fill="#CAEEF3" transform="translate(211,85)"/>
<path d="M0 0 C3.70293685 -0.33663062 5.39534381 -0.47736015 8.375 1.875 C10 4 10 4 10 6 C11.32 6.33 12.64 6.66 14 7 C10.29706315 7.33663062 8.60465619 7.47736015 5.625 5.125 C4 3 4 3 4 1 C3.01 1 2.02 1 1 1 C1 2.65 1 4.3 1 6 C0.67 6 0.34 6 0 6 C0 4.02 0 2.04 0 0 Z " fill="#407C90" transform="translate(190,83)"/>
<path d="M0 0 C3.96 0 7.92 0 12 0 C12 0.99 12 1.98 12 3 C8.04 3 4.08 3 0 3 C0 2.01 0 1.02 0 0 Z " fill="#E7FEFE" transform="translate(314,78)"/>
<path d="M0 0 C1.17046875 0.03609375 2.3409375 0.0721875 3.546875 0.109375 C4.43890625 0.15578125 5.3309375 0.2021875 6.25 0.25 C6.25 0.58 6.25 0.91 6.25 1.25 C2.62 1.25 -1.01 1.25 -4.75 1.25 C-4.42 2.57 -4.09 3.89 -3.75 5.25 C-6.06 5.91 -8.37 6.57 -10.75 7.25 C-10.75 4.25 -10.75 4.25 -9.171875 2.078125 C-5.95781989 -0.34796821 -3.97884692 -0.15915388 0 0 Z " fill="#BEE1EA" transform="translate(176.75,68.75)"/>
<path d="M0 0 C1.46067199 0.45082469 2.91848032 0.91093537 4.375 1.375 C5.18710938 1.63023438 5.99921875 1.88546875 6.8359375 2.1484375 C9 3 9 3 11 5 C11.125 8.625 11.125 8.625 11 12 C10.01 12.495 10.01 12.495 9 13 C8.87625 11.88625 8.7525 10.7725 8.625 9.625 C8.3534187 5.96896323 8.3534187 5.96896323 6 4 C3.41645782 3.83312552 3.41645782 3.83312552 1 4 C0.67 2.68 0.34 1.36 0 0 Z " fill="#C7EFF5" transform="translate(87,68)"/>
<path d="M0 0 C0.99 0.33 1.98 0.66 3 1 C2.278125 1.70125 1.55625 2.4025 0.8125 3.125 C-1.99823813 5.92770745 -4.49516226 8.92262792 -7 12 C-7.66 11.67 -8.32 11.34 -9 11 C-9 10.34 -9 9.68 -9 9 C-8.34 9 -7.68 9 -7 9 C-6.67 8.01 -6.34 7.02 -6 6 C-5.67 5.01 -5.34 4.02 -5 3 C-3.35 2.67 -1.7 2.34 0 2 C0 1.34 0 0.68 0 0 Z " fill="#1A657B" transform="translate(72,50)"/>
<path d="M0 0 C6.94736842 -0.31578947 6.94736842 -0.31578947 10 2 C11.75 5.125 11.75 5.125 13 8 C8.27626146 6.37621488 4.05818166 3.89006982 0 1 C0 0.67 0 0.34 0 0 Z " fill="#24B0DF" transform="translate(30,122)"/>
<path d="M0 0 C1.65 0 3.3 0 5 0 C5 1.98 5 3.96 5 6 C4.360625 5.690625 3.72125 5.38125 3.0625 5.0625 C-0.92049104 3.68064597 -4.81650849 3.3463457 -9 3 C-9 2.67 -9 2.34 -9 2 C-6.03 2 -3.06 2 0 2 C0 1.34 0 0.68 0 0 Z " fill="#BBDCE4" transform="translate(158,83)"/>
<path d="M0 0 C3.63 0 7.26 0 11 0 C11.33 0.99 11.66 1.98 12 3 C8.04 3 4.08 3 0 3 C0 2.01 0 1.02 0 0 Z " fill="#155C70" transform="translate(315,74)"/>
<path d="M0 0 C2.31 0 4.62 0 7 0 C7 1.65 7 3.3 7 5 C4.69 5 2.38 5 0 5 C0 3.35 0 1.7 0 0 Z " fill="#0A617C" transform="translate(273,75)"/>
<path d="M0 0 C0 0.66 0 1.32 0 2 C-4.95 2.33 -9.9 2.66 -15 3 C-15.33 2.01 -15.66 1.02 -16 0 C-13.7089095 -0.19441368 -11.41709663 -0.38033135 -9.125 -0.5625 C-7.21074219 -0.71912109 -7.21074219 -0.71912109 -5.2578125 -0.87890625 C-2 -1 -2 -1 0 0 Z " fill="#135F75" transform="translate(183,67)"/>
<path d="M0 0 C0.99 0.33 1.98 0.66 3 1 C0.75 3.0625 0.75 3.0625 -2 5 C-4.3125 4.75 -4.3125 4.75 -6 4 C-3.1875 1.9375 -3.1875 1.9375 0 0 Z M4 6 C1.06872538 7.95418308 -0.55834679 8.64700993 -4 9 C-4.66 8.34 -5.32 7.68 -6 7 C-2.1496895 4.43312633 -0.41430237 5.16711276 4 6 Z " fill="#21ACD7" transform="translate(87,2)"/>
<path d="M0 0 C-1.45038168 4.59287532 -1.45038168 4.59287532 -3.6875 6.25 C-6.75598875 7.24518554 -9.80192035 7.63099081 -13 8 C-10.83676753 5.68757908 -8.62352196 3.9843604 -5.9375 2.3125 C-5.24527344 1.87550781 -4.55304688 1.43851563 -3.83984375 0.98828125 C-2 0 -2 0 0 0 Z " fill="#06779D" transform="translate(112,144)"/>
<path d="M0 0 C2.31 0 4.62 0 7 0 C4 2 4 2 2 3 C2 4.65 2 6.3 2 8 C3.65 8.33 5.3 8.66 7 9 C7 9.66 7 10.32 7 11 C4.69 11 2.38 11 0 11 C0 7.37 0 3.74 0 0 Z " fill="#115F71" transform="translate(150,74)"/>
<path d="M0 0 C3 3.75 3 3.75 3 6 C1.35 6.66 -0.3 7.32 -2 8 C-2 10.64 -2 13.28 -2 16 C-2.33 16 -2.66 16 -3 16 C-3.55353075 4.29384966 -3.55353075 4.29384966 0 0 Z " fill="#21697E" transform="translate(72,64)"/>
<path d="M0 0 C0 0.66 0 1.32 0 2 C-0.33 2.33 -0.66 2.66 -1 3 C0.98 2.67 2.96 2.34 5 2 C2.6875 4.0625 2.6875 4.0625 0 6 C-0.99 5.67 -1.98 5.34 -3 5 C-3 4.34 -3 3.68 -3 3 C-3.66 3 -4.32 3 -5 3 C-5 3.66 -5 4.32 -5 5 C-6.65 5.33 -8.3 5.66 -10 6 C-4.4 0 -4.4 0 0 0 Z " fill="#24AFD9" transform="translate(66,16)"/>
<path d="M0 0 C-0.3125 1.875 -0.3125 1.875 -1 4 C-4 6 -4 6 -8 6 C-7.67 4.35 -7.34 2.7 -7 1 C-4 0 -4 0 0 0 Z " fill="#2AC0EF" transform="translate(96,150)"/>
<path d="M0 0 C3.63 1.32 7.26 2.64 11 4 C9.68 4.33 8.36 4.66 7 5 C7 5.66 7 6.32 7 7 C1.25 5.375 1.25 5.375 -1 2 C-0.67 1.34 -0.34 0.68 0 0 Z " fill="#377687" transform="translate(75,96)"/>
<path d="M0 0 C1.2065625 0.0309375 1.2065625 0.0309375 2.4375 0.0625 C1.7775 2.3725 1.1175 4.6825 0.4375 7.0625 C-0.8825 6.7325 -2.2025 6.4025 -3.5625 6.0625 C-3.605221 4.39638095 -3.60313832 2.72867115 -3.5625 1.0625 C-2.5625 0.0625 -2.5625 0.0625 0 0 Z " fill="#056284" transform="translate(154.5625,75.9375)"/>
<path d="M0 0 C4.49652778 -0.36458333 4.49652778 -0.36458333 6.8125 1.3125 C8 3 8 3 8 6 C9.32 6.33 10.64 6.66 12 7 C8.37471432 7.20140476 6.13498292 6.85776765 3 5 C3.33 4.01 3.66 3.02 4 2 C2.68 2.33 1.36 2.66 0 3 C0 2.01 0 1.02 0 0 Z " fill="#16637A" transform="translate(252,84)"/>
<path d="M0 0 C3.96 0 7.92 0 12 0 C11.01 0.495 11.01 0.495 10 1 C10 1.66 10 2.32 10 3 C6.7 3 3.4 3 0 3 C0 2.01 0 1.02 0 0 Z " fill="#155C6F" transform="translate(212,74)"/>
<path d="M0 0 C1.19496094 0.13148438 1.19496094 0.13148438 2.4140625 0.265625 C3.06117187 0.42546875 3.70828125 0.5853125 4.375 0.75 C4.705 1.41 5.035 2.07 5.375 2.75 C4.055 2.75 2.735 2.75 1.375 2.75 C1.375 3.74 1.375 4.73 1.375 5.75 C0.715 5.75 0.055 5.75 -0.625 5.75 C-0.625 5.09 -0.625 4.43 -0.625 3.75 C-2.935 3.09 -5.245 2.43 -7.625 1.75 C-4.3237992 -0.45080053 -3.73398842 -0.46218749 0 0 Z " fill="#22B4DD" transform="translate(66.625,138.25)"/>
<path d="M0 0 C5.94 0.33 11.88 0.66 18 1 C18 1.33 18 1.66 18 2 C17.43152344 2.06058594 16.86304688 2.12117188 16.27734375 2.18359375 C12.5196684 2.59135485 8.79718482 3.03219289 5.0625 3.625 C2 4 2 4 0 3 C0 2.01 0 1.02 0 0 Z " fill="#0D5E75" transform="translate(288,89)"/>
<path d="M0 0 C0.33 0 0.66 0 1 0 C1.33 2.31 1.66 4.62 2 7 C2.33 7 2.66 7 3 7 C3 8.65 3 10.3 3 12 C2.01 12.495 2.01 12.495 1 13 C1 12.01 1 11.02 1 10 C0.34 9.67 -0.32 9.34 -1 9 C-0.67 8.34 -0.34 7.68 0 7 C-3.3 7 -6.6 7 -10 7 C-10 6.67 -10 6.34 -10 6 C-6.7 6 -3.4 6 0 6 C0 4.02 0 2.04 0 0 Z " fill="#D6EEEF" transform="translate(179,73)"/>
<path d="M0 0 C2.64 0 5.28 0 8 0 C8 0.66 8 1.32 8 2 C9.65 2 11.3 2 13 2 C13.33 2.66 13.66 3.32 14 4 C7.07 3.505 7.07 3.505 0 3 C0 2.01 0 1.02 0 0 Z " fill="#185B6F" transform="translate(335,74)"/>
<path d="M0 0 C0.66 0.33 1.32 0.66 2 1 C1.01 1.66 0.02 2.32 -1 3 C-0.67 3.99 -0.34 4.98 0 6 C-2.31 6.66 -4.62 7.32 -7 8 C-6.01347016 4.68167234 -5.31268497 3.23451373 -2.5 1.125 C-1.675 0.75375 -0.85 0.3825 0 0 Z " fill="#2BC1ED" transform="translate(83,6)"/>
<path d="M0 0 C0.66 0 1.32 0 2 0 C2.2784375 1.1446875 2.2784375 1.1446875 2.5625 2.3125 C4.63445622 6.18615728 6.92286538 6.56545263 11 8 C11 8.33 11 8.66 11 9 C7.75 9.3125 7.75 9.3125 4 9 C1.5625 6.75 1.5625 6.75 0 4 C0 2.68 0 1.36 0 0 Z " fill="#C1F0F6" transform="translate(83,75)"/>
<path d="M0 0 C4.29 0 8.58 0 13 0 C13 1.32 13 2.64 13 4 C10.625 4.125 10.625 4.125 8 4 C7.34 3.34 6.68 2.68 6 2 C4.01178687 1.60235737 2.01055661 1.26224651 0 1 C0 0.67 0 0.34 0 0 Z " fill="#C5EAF1" transform="translate(314,85)"/>
<path d="M0 0 C0.33 0 0.66 0 1 0 C1 1.65 1 3.3 1 5 C-2.63 5 -6.26 5 -10 5 C-10.33 4.34 -10.66 3.68 -11 3 C-5.555 2.505 -5.555 2.505 0 2 C0 1.34 0 0.68 0 0 Z " fill="#F0FDFE" transform="translate(345,83)"/>
<path d="M0 0 C0.99 0.33 1.98 0.66 3 1 C2.67 4.63 2.34 8.26 2 12 C1.34 12 0.68 12 0 12 C0 8.04 0 4.08 0 0 Z " fill="#F5FDFD" transform="translate(228,76)"/>
<path d="M0 0 C7.75 -0.125 7.75 -0.125 10 1 C10 1.66 10 2.32 10 3 C6.7 3 3.4 3 0 3 C0 2.01 0 1.02 0 0 Z " fill="#165C71" transform="translate(232,74)"/>
<path d="M0 0 C5.98993047 -0.3152595 9.63560356 0.31780178 15 3 C15 3.66 15 4.32 15 5 C12.03 4.01 9.06 3.02 6 2 C5.67 2.66 5.34 3.32 5 4 C5 3.01 5 2.02 5 1 C3.35 1 1.7 1 0 1 C0 0.67 0 0.34 0 0 Z " fill="#64919B" transform="translate(86,54)"/>
<path d="M0 0 C0.66 0.33 1.32 0.66 2 1 C0.515 3.475 0.515 3.475 -1 6 C0.32 5.67 1.64 5.34 3 5 C2.67 5.66 2.34 6.32 2 7 C-0.0625 7.625 -0.0625 7.625 -2 8 C-2 7.34 -2 6.68 -2 6 C-3.65 5.67 -5.3 5.34 -7 5 C-4.702779 3.25728062 -2.40133271 1.60088848 0 0 Z " fill="#22AED7" transform="translate(77,8)"/>
<path d="M0 0 C0.33 0 0.66 0 1 0 C1.07347656 1.21236328 1.07347656 1.21236328 1.1484375 2.44921875 C1.22320312 3.51785156 1.29796875 4.58648437 1.375 5.6875 C1.44460937 6.74324219 1.51421875 7.79898438 1.5859375 8.88671875 C1.98760089 11.90677269 2.74069019 14.24078054 4 17 C3.34 17.66 2.68 18.32 2 19 C-1.17441612 12.27023784 -1.11388158 7.30062141 0 0 Z " fill="#9ACFD9" transform="translate(68,72)"/>
<path d="M0 0 C2.46800047 1.15173355 4.04783565 2.04783565 6 4 C6 4.99 6 5.98 6 7 C3.11424181 6.60196439 2.17810487 6.20990931 0.25 3.9375 C-0.1625 3.298125 -0.575 2.65875 -1 2 C-0.67 1.34 -0.34 0.68 0 0 Z " fill="#246575" transform="translate(96,81)"/>
<path d="M0 0 C0.99 0.495 0.99 0.495 2 1 C2.33 1.99 2.66 2.98 3 4 C3.99 4.66 4.98 5.32 6 6 C6 6.66 6 7.32 6 8 C4.02 8 2.04 8 0 8 C0 5.36 0 2.72 0 0 Z " fill="#EAFDFD" transform="translate(269,81)"/>
<path d="M0 0 C0.33 1.32 0.66 2.64 1 4 C2.32 3.67 3.64 3.34 5 3 C5 4.32 5 5.64 5 7 C4.34 7 3.68 7 3 7 C3 8.32 3 9.64 3 11 C2.01 10.67 1.02 10.34 0 10 C0 6.7 0 3.4 0 0 Z " fill="#B8DBE2" transform="translate(329,70)"/>
<path d="M0 0 C0 0.66 0 1.32 0 2 C3.63 2 7.26 2 11 2 C11 2.33 11 2.66 11 3 C5.39 3 -0.22 3 -6 3 C-6 2.34 -6 1.68 -6 1 C-4 0 -4 0 0 0 Z " fill="#165C72" transform="translate(336,66)"/>
<path d="M0 0 C1.32 0 2.64 0 4 0 C4.33 2.64 4.66 5.28 5 8 C2.5 6.8125 2.5 6.8125 0 5 C-0.3125 2.3125 -0.3125 2.3125 0 0 Z " fill="#3E7784" transform="translate(63,78)"/>
<path d="M0 0 C0 0.99 0 1.98 0 3 C-1.32 3 -2.64 3 -4 3 C-4 4.98 -4 6.96 -4 9 C-4.33 9 -4.66 9 -5 9 C-5.28875 7.88625 -5.5775 6.7725 -5.875 5.625 C-6.69241329 1.99708908 -6.69241329 1.99708908 -9 0 C-5.52176885 -1.15941038 -3.54104422 -0.70820884 0 0 Z " fill="#1D6984" transform="translate(103,70)"/>
<path d="M0 0 C4.21422242 2.88341534 5.76075855 5.04303419 7 10 C6.34 10 5.68 10 5 10 C0 4.76190476 0 4.76190476 0 0 Z " fill="#CCEBEF" transform="translate(111,56)"/>
<path d="M0 0 C1.98 0 3.96 0 6 0 C6 1.32 6 2.64 6 4 C3.69 4 1.38 4 -1 4 C-0.67 2.68 -0.34 1.36 0 0 Z " fill="#0F5E7A" transform="translate(253,75)"/>
<path d="M0 0 C5.28 0 10.56 0 16 0 C16 0.99 16 1.98 16 3 C14.02 3 12.04 3 10 3 C10 2.67 10 2.34 10 2 C6.7 1.67 3.4 1.34 0 1 C0 0.67 0 0.34 0 0 Z " fill="#E2FCFE" transform="translate(228,70)"/>
<path d="M0 0 C4.95 1.98 4.95 1.98 10 4 C10 4.33 10 4.66 10 5 C7.03 5 4.06 5 1 5 C0.67 3.35 0.34 1.7 0 0 Z " fill="#296A82" transform="translate(73,101)"/>
<path d="M0 0 C0.66 0 1.32 0 2 0 C1.25 4.75 1.25 4.75 -1 7 C-3.625 7.125 -3.625 7.125 -6 7 C-6.33 6.34 -6.66 5.68 -7 5 C-5.5459375 4.5978125 -5.5459375 4.5978125 -4.0625 4.1875 C-3.051875 3.795625 -2.04125 3.40375 -1 3 C-0.67 2.01 -0.34 1.02 0 0 Z " fill="#376C79" transform="translate(94,75)"/>
<path d="M0 0 C5.96351455 1.27789598 8.48417174 4.33716394 12 9 C11.34 9.66 10.68 10.32 10 11 C9.46375 10.0925 8.9275 9.185 8.375 8.25 C6.16271608 4.88382698 3.42841736 3.10380156 0 1 C0 0.67 0 0.34 0 0 Z " fill="#D9EEF1" transform="translate(100,56)"/>
<path d="M0 0 C1.98 1.65 3.96 3.3 6 5 C5.67 6.65 5.34 8.3 5 10 C3.68 9.67 2.36 9.34 1 9 C1.99 9 2.98 9 4 9 C2.38731308 6.28775382 0.75098126 3.62647188 -1 1 C-0.67 0.67 -0.34 0.34 0 0 Z " fill="#A5D8DF" transform="translate(98,79)"/>
<path d="M0 0 C0.66 0.33 1.32 0.66 2 1 C2 2.65 2 4.3 2 6 C1.01 6.33 0.02 6.66 -1 7 C-1.33 6.01 -1.66 5.02 -2 4 C-2.99 3.67 -3.98 3.34 -5 3 C-2.625 1.4375 -2.625 1.4375 0 0 Z " fill="#24B2DB" transform="translate(53,22)"/>
<path d="M0 0 C1.32 0.33 2.64 0.66 4 1 C4 3.97 4 6.94 4 10 C3.67 8.68 3.34 7.36 3 6 C2.34 6 1.68 6 1 6 C0.67 4.02 0.34 2.04 0 0 Z " fill="#75ABB6" transform="translate(109,71)"/>
<path d="M0 0 C0.33 0.99 0.66 1.98 1 3 C3.01508358 3.73323796 3.01508358 3.73323796 5 4 C3.35 4 1.7 4 0 4 C0 5.98 0 7.96 0 10 C-0.33 10 -0.66 10 -1 10 C-1 8.02 -1 6.04 -1 4 C-1.99 3.67 -2.98 3.34 -4 3 C-2.68 2.01 -1.36 1.02 0 0 Z " fill="#3E798B" transform="translate(77,59)"/>
<path d="M0 0 C0.66 1.32 1.32 2.64 2 4 C-0.3125 5.125 -0.3125 5.125 -3 6 C-3.99 5.34 -4.98 4.68 -6 4 C-4.02 2.68 -2.04 1.36 0 0 Z " fill="#1B6A86" transform="translate(111,98)"/>
<path d="M0 0 C1.5 1.3125 1.5 1.3125 3 3 C3 3.99 3 4.98 3 6 C1.02 6.66 -0.96 7.32 -3 8 C-3 7.34 -3 6.68 -3 6 C-3.66 5.34 -4.32 4.68 -5 4 C-3.35 4 -1.7 4 0 4 C0 2.68 0 1.36 0 0 Z " fill="#266F88" transform="translate(265,85)"/>
<path d="M0 0 C0.99 0.495 0.99 0.495 2 1 C2 1.66 2 2.32 2 3 C3.32 3.33 4.64 3.66 6 4 C6 4.66 6 5.32 6 6 C4.68 6.33 3.36 6.66 2 7 C0.5393715 4.35261084 0 3.10551666 0 0 Z " fill="#0B5F7C" transform="translate(96,90)"/>
<path d="M0 0 C2.125 0.9375 2.125 0.9375 4 2 C3.01 2.495 3.01 2.495 2 3 C1.53248212 5.35599235 1.53248212 5.35599235 1.375 8.0625 C1.30023438 8.98160156 1.22546875 9.90070313 1.1484375 10.84765625 C1.09945313 11.55792969 1.05046875 12.26820312 1 13 C0.67 13 0.34 13 0 13 C-0.06058594 12.30132812 -0.12117188 11.60265625 -0.18359375 10.8828125 C-0.26738281 9.97273438 -0.35117187 9.06265625 -0.4375 8.125 C-0.51871094 7.22007813 -0.59992188 6.31515625 -0.68359375 5.3828125 C-0.86989285 2.98889139 -0.86989285 2.98889139 -2 1 C-1.34 0.67 -0.68 0.34 0 0 Z " fill="#32728A" transform="translate(265,68)"/>
<path d="M0 0 C0.99 0 1.98 0 3 0 C3 1.98 3 3.96 3 6 C3.66 6.33 4.32 6.66 5 7 C4.01 7.33 3.02 7.66 2 8 C0.23537317 4.91190305 0 3.76687864 0 0 Z " fill="#16637B" transform="translate(73,63)"/>
<path d="M0 0 C2 3 2 3 2 7 C0.68 7 -0.64 7 -2 7 C-2.66 5.68 -3.32 4.36 -4 3 C-2.68 3.33 -1.36 3.66 0 4 C0 2.68 0 1.36 0 0 Z " fill="#D4F1F6" transform="translate(202,82)"/>
<path d="M0 0 C1.65 0 3.3 0 5 0 C5 1.65 5 3.3 5 5 C4.01 5 3.02 5 2 5 C1.34 3.35 0.68 1.7 0 0 Z " fill="#F3FDFD" transform="translate(278,82)"/>
<path d="M0 0 C5.53846154 -0.36923077 5.53846154 -0.36923077 7.875 1.5 C8.24625 1.995 8.6175 2.49 9 3 C8.34 3.66 7.68 4.32 7 5 C3.535 3.02 3.535 3.02 0 1 C0 0.67 0 0.34 0 0 Z " fill="#0B80A9" transform="translate(90,11)"/>
<path d="M0 0 C4.875 1.75 4.875 1.75 6 4 C5.34 4 4.68 4 4 4 C4 4.66 4 5.32 4 6 C3.34 6 2.68 6 2 6 C2 5.34 2 4.68 2 4 C1.01 3.34 0.02 2.68 -1 2 C-0.67 1.34 -0.34 0.68 0 0 Z " fill="#2EBFEF" transform="translate(48,128)"/>
<path d="M0 0 C2.31 1.98 4.62 3.96 7 6 C6.34 6.66 5.68 7.32 5 8 C2.5 5.6875 2.5 5.6875 0 3 C0 2.01 0 1.02 0 0 Z " fill="#B8EAF3" transform="translate(71,89)"/>
<path d="M0 0 C0.45375 0.639375 0.9075 1.27875 1.375 1.9375 C2.83921726 4.09702406 2.83921726 4.09702406 5 5 C4.01 6.485 4.01 6.485 3 8 C1.68 7.34 0.36 6.68 -1 6 C-0.67 4.02 -0.34 2.04 0 0 Z " fill="#387B92" transform="translate(104,85)"/>
<path d="M0 0 C0.94875 0.04125 1.8975 0.0825 2.875 0.125 C2.875 1.115 2.875 2.105 2.875 3.125 C0.235 2.795 -2.405 2.465 -5.125 2.125 C-3.125 0.125 -3.125 0.125 0 0 Z " fill="#175C69" transform="translate(340.125,81.875)"/>
<path d="M0 0 C-0.33 1.65 -0.66 3.3 -1 5 C-3.64 4.34 -6.28 3.68 -9 3 C-6.38997624 -0.48003168 -4.1689578 -0.27793052 0 0 Z " fill="#E4FAFD" transform="translate(199,80)"/>
<path d="M0 0 C0 1.98 0 3.96 0 6 C-2.5 4.625 -2.5 4.625 -5 3 C-5 2.34 -5 1.68 -5 1 C-3 0 -3 0 0 0 Z " fill="#F7FCFD" transform="translate(83,64)"/>
<path d="M0 0 C0.66 0.66 1.32 1.32 2 2 C0.3125 3.5625 0.3125 3.5625 -2 5 C-4.75 4.6875 -4.75 4.6875 -7 4 C-4.68143083 2.45428722 -2.49361571 1.20381448 0 0 Z " fill="#9ED1DE" transform="translate(104,94)"/>
<path d="M0 0 C2.3431213 0.25561323 4.67843403 0.59270772 7 1 C7.33 1.66 7.66 2.32 8 3 C6.25 3.75 6.25 3.75 4 4 C1.75 2.0625 1.75 2.0625 0 0 Z " fill="#236B86" transform="translate(76,93)"/>
<path d="M0 0 C1.9375 0.8125 1.9375 0.8125 4 2 C4.33 2.99 4.66 3.98 5 5 C4.01 6.485 4.01 6.485 3 8 C2.01 5.36 1.02 2.72 0 0 Z " fill="#2A6B7F" transform="translate(64,84)"/>
<path d="M0 0 C1.2077558 3.62326739 0.54311128 4.64146369 -1 8 C-2.4606285 5.35261084 -3 4.10551666 -3 1 C-2.01 0.67 -1.02 0.34 0 0 Z " fill="#1F6B80" transform="translate(111,81)"/>
<path d="M0 0 C1.98 0 3.96 0 6 0 C6 0.99 6 1.98 6 3 C4.35 3 2.7 3 1 3 C0.67 2.01 0.34 1.02 0 0 Z " fill="#0A607B" transform="translate(192,75)"/>
<path d="M0 0 C0.99 0.33 1.98 0.66 3 1 C1.71937515 2.7074998 0.38232443 4.37373596 -1 6 C-1.66 6 -2.32 6 -3 6 C-2.67 4.68 -2.34 3.36 -2 2 C-1.34 2.33 -0.68 2.66 0 3 C0 2.01 0 1.02 0 0 Z " fill="#2A6D81" transform="translate(166,69)"/>
<path d="M0 0 C2.31 0.33 4.62 0.66 7 1 C7.33 1.99 7.66 2.98 8 4 C5.64828869 3.40138258 3.3140622 2.73075648 1 2 C0.67 1.34 0.34 0.68 0 0 Z " fill="#226F7C" transform="translate(86,66)"/>
<path d="M0 0 C0 0.66 0 1.32 0 2 C-1.98 2.33 -3.96 2.66 -6 3 C-6 2.01 -6 1.02 -6 0 C-3.50907189 -1.24546405 -2.58919267 -0.7767578 0 0 Z " fill="#0A5F75" transform="translate(84,59)"/>
<path d="M0 0 C-2.35968744 2.09749995 -3.54616994 2.96905704 -6.75 3.1875 C-7.86375 3.0946875 -7.86375 3.0946875 -9 3 C-5.83583464 -0.30799106 -4.50236011 -1.35070803 0 0 Z " fill="#D8F1F4" transform="translate(81,51)"/>
</svg>
